{
.appVersion = "1354";
classes = (
{
automatic = 1;
code = "A B C D E F G H I L M N O P Q R S T V a a_macr b c d d.ss01 e e_macr f f_l g g.ss01 h h.ss01 i idotless i_macr k l m n o o_macr p q q_etfin q_strok q_strok_ra r r_rot_c_ra s longs longs_i longs_t t u u_macr v x y z";
name = AllLetters;
}
);
copyright = "Copyright (c) 2019 ANRT. All rights reserved.";
customParameters = (
{
name = glyphOrder;
value = (
.notdef,
emspace,
enspace,
threeperemspace,
fourperemspace,
space,
thinspace,
hairspace,
A,
B,
C,
D,
E,
F,
G,
H,
I,
J,
K,
L,
M,
N,
O,
P,
Q,
Q_strok,
R,
S,
T,
U,
V,
W,
X,
Y,
Z,
a,
a_macr,
b,
c,
c_t,
d,
d.ss01,
e,
e_macr,
f,
f_l,
g,
g.ss01,
h,
h.ss01,
i,
idotless,
i_macr,
j,
k,
l,
m,
n,
o,
o_macr,
p,
q,
q_etfin,
q_strok,
q_strok_ra,
q_tilde,
r,
r_rot,
r_rot_c_ra,
s,
longs,
longs_i,
longs_t,
t,
u,
u_macr,
v,
w,
x,
y,
z,
etfin,
con,
section,
parenleft,
parenright,
period,
semicolon,
question,
slash,
hyphen,
macr,
ra
);
},
{
name = "Use Typo Metrics";
value = 1;
},
{
name = vendorID;
value = ANRT;
},
{
name = unicodeRanges;
value = (
0
);
},
{
name = codePageRanges;
value = (
1252
);
},
{
name = description;

glyphs = (
{
color = 3;
glyphname = A;
lastChange = "2020-02-10 11:22:05 +0000";
layers = (
{
anchors = (
{
name = bottom;
position = "{363, 0}";
},
{
name = ogonek;
position = "{665, 10}";
},
{
name = top;
position = "{363, 700}";
}
);
layerId = "0E913661-75E6-4305-BF89-58B721FF741E";
paths = (
{
closed = 1;
nodes = (
"624 23 OFFCURVE",
"672 65 OFFCURVE",
"720 89 CURVE",
"612 266 OFFCURVE",
"512 442 OFFCURVE",
"419 618 CURVE",
"549 619 OFFCURVE",
"626 623 OFFCURVE",
"704 572 CURVE",
"719 583 LINE",
"695 624 OFFCURVE",
"690 668 OFFCURVE",
"708 715 CURVE",
"689 723 LINE",
"645 682 OFFCURVE",
"570 675 OFFCURVE",
"390 674 CURVE",
"372 709 LINE",
"359 708 LINE",
"341 674 LINE",
"204 673 OFFCURVE",
"135 665 OFFCURVE",
"65 725 CURVE",
"43 719 LINE",
"65 654 OFFCURVE",
"60 638 OFFCURVE",
"33 583 CURVE",
"53 568 LINE",
"121 616 OFFCURVE",
"151 617 OFFCURVE",
"310 618 CURVE",
"216 441 OFFCURVE",
"114 247 OFFCURVE",
"5 78 CURVE",
"42 64 OFFCURVE",
"92 29 OFFCURVE",
"153 -25 CURVE",
"176 -10 LINE",
"119 178 OFFCURVE",
"191 250 OFFCURVE",
"239 349 CURVE",
"281 280 OFFCURVE",
"318 212 OFFCURVE",
"351 143 CURVE",
"367 142 LINE",
"408 226 OFFCURVE",
"447 301 OFFCURVE",
"488 366 CURVE",
"499 342 LINE SMOOTH",
"550 233 OFFCURVE",
"614 151 OFFCURVE",
"553 -24 CURVE",
"576 -39 LINE"
);
},
{
closed = 1;
nodes = (
"328 287 OFFCURVE",
"295 343 OFFCURVE",
"262 399 CURVE",
"363 632 LINE",
"465 415 LINE",
"436 356 OFFCURVE",
"401 291 OFFCURVE",
"362 231 CURVE"
);
}
);
width = 735;
}
);
unicode = 0041;
},
{
color = 3;
glyphname = B;
lastChange = "2020-02-10 11:19:48 +0000";
layers = (
{
anchors = (
{
name = bottom;
position = "{307, 0}";
},
{
name = top;
position = "{307, 700}";
}
);
layerId = "0E913661-75E6-4305-BF89-58B721FF741E";
paths = (
{
closed = 1;
nodes = (
"515 -14 OFFCURVE",
"593 69 OFFCURVE",
"593 182 CURVE SMOOTH",
"593 296 OFFCURVE",
"486 352 OFFCURVE",
"426 363 CURVE",
"501 375 OFFCURVE",
"582 444 OFFCURVE",
"582 535 CURVE SMOOTH",
"582 636 OFFCURVE",
"499 711 OFFCURVE",
"367 711 CURVE SMOOTH",
"318 711 OFFCURVE",
"249 695 OFFCURVE",
"181 694 CURVE SMOOTH",
"128 693 OFFCURVE",
"92 697 OFFCURVE",
"61 714 CURVE",
"40 691 LINE",
"86 648 OFFCURVE",
"100 642 OFFCURVE",
"100 553 CURVE SMOOTH",
"99 107 LINE SMOOTH",
"99 57 OFFCURVE",
"79 45 OFFCURVE",
"45 24 CURVE",
"66 -8 LINE",
"82 2 OFFCURVE",
"113 8 OFFCURVE",
"159 8 CURVE SMOOTH",
"228 8 OFFCURVE",
"332 -14 OFFCURVE",
"389 -14 CURVE SMOOTH"
);
},
{
closed = 1;
nodes = (
"255 30 OFFCURVE",
"194 71 OFFCURVE",
"194 147 CURVE SMOOTH",
"194 341 LINE",
"226 344 OFFCURVE",
"258 346 OFFCURVE",
"290 346 CURVE SMOOTH",
"468 346 OFFCURVE",
"501 226 OFFCURVE",
"501 175 CURVE SMOOTH",
"501 88 OFFCURVE",
"446 30 OFFCURVE",
"340 30 CURVE SMOOTH"
);
},
{
closed = 1;
nodes = (
"259 385 OFFCURVE",
"226 385 OFFCURVE",
"194 387 CURVE",
"194 544 LINE SMOOTH",
"194 638 OFFCURVE",
"240 672 OFFCURVE",
"327 672 CURVE SMOOTH",
"432 672 OFFCURVE",
"492 609 OFFCURVE",
"492 527 CURVE SMOOTH",
"492 431 OFFCURVE",
"407 385 OFFCURVE",
"291 385 CURVE SMOOTH"
);
}
);
width = 628;
}
);
leftMetricsKey = H;
unicode = 0042;
},
{
color = 3;
glyphname = C;
lastChange = "2020-01-30 15:42:40 +0000";
layers = (
{
anchors = (
{
name = bottom;
position = "{283, 0}";
},
{
name = top;
position = "{283, 700}";
}
);
layerId = "0E913661-75E6-4305-BF89-58B721FF741E";
paths = (
{
closed = 1;
nodes = (
"415 -9 OFFCURVE",
"479 18 OFFCURVE",
"525 50 CURVE",
"571 -7 LINE",
"597 3 LINE",
"575 75 OFFCURVE",
"582 166 OFFCURVE",
"595 223 CURVE",
"569 229 LINE",
"532 111 OFFCURVE",
"487 37 OFFCURVE",
"350 37 CURVE SMOOTH",
"173 37 OFFCURVE",
"115 191 OFFCURVE",
"115 352 CURVE SMOOTH",
"115 538 OFFCURVE",
"217 663 OFFCURVE",
"360 663 CURVE SMOOTH",
"445 663 OFFCURVE",
"520 623 OFFCURVE",
"558 497 CURVE",
"585 500 LINE",
"581 571 OFFCURVE",
"582 620 OFFCURVE",
"606 700 CURVE",
"583 709 LINE",
"535 649 LINE",
"499 685 OFFCURVE",
"415 712 OFFCURVE",
"350 712 CURVE SMOOTH",
"186 712 OFFCURVE",
"15 580 OFFCURVE",
"15 352 CURVE SMOOTH",
"15 129 OFFCURVE",
"111 -9 OFFCURVE",
"330 -9 CURVE SMOOTH"
);
}
);
width = 636;
}
);
leftMetricsKey = O;
unicode = 0043;
},
{
color = 3;
glyphname = D;
lastChange = "2020-02-10 11:21:32 +0000";
layers = (
{
anchors = (
{
name = bottom;
position = "{384, 0}";
},
{
name = center;
position = "{384, 350}";
},
{
name = top;
position = "{384, 700}";
}
);
layerId = "0E913661-75E6-4305-BF89-58B721FF741E";
paths = (
{
closed = 1;
nodes = (
"56 -12 OFFCURVE",
"104 21 OFFCURVE",
"143 21 CURVE SMOOTH",
"221 21 OFFCURVE",
"290 -10 OFFCURVE",
"407 -10 CURVE SMOOTH",
"592 -10 OFFCURVE",
"758 125 OFFCURVE",
"758 344 CURVE SMOOTH",
"758 568 OFFCURVE",
"614 711 OFFCURVE",
"398 711 CURVE SMOOTH",
"312 711 OFFCURVE",
"253 682 OFFCURVE",
"181 682 CURVE SMOOTH",
"147 682 OFFCURVE",
"86 700 OFFCURVE",
"51 704 CURVE",
"40 678 LINE",
"90 656 OFFCURVE",
"111 639 OFFCURVE",
"110 557 CURVE SMOOTH",
"104 145 LINE SMOOTH",
"103 65 OFFCURVE",
"74 55 OFFCURVE",
"25 18 CURVE",
"45 -15 LINE"
);
},
{
closed = 1;
nodes = (
"307 31 OFFCURVE",
"269 51 OFFCURVE",
"211 103 CURVE",
"207 240 OFFCURVE",
"207 377 OFFCURVE",
"211 514 CURVE SMOOTH",
"214 613 OFFCURVE",
"281 664 OFFCURVE",
"400 664 CURVE SMOOTH",
"560 664 OFFCURVE",
"649 541 OFFCURVE",
"649 344 CURVE SMOOTH",
"649 149 OFFCURVE",
"535 31 OFFCURVE",
"403 31 CURVE SMOOTH"
);
}
);
width = 783;
}
);
unicode = 0044;
},
{
color = 3;
glyphname = E;
lastChange = "2020-01-30 15:42:40 +0000";
layers = (
{
anchors = (
{
name = bottom;
position = "{254, 0}";
},
{
name = ogonek;
position = "{464, 10}";
},
{
name = top;
position = "{254, 700}";
},
{
name = topleft;
position = "{11, 700}";
}
);
layerId = "0E913661-75E6-4305-BF89-58B721FF741E";
paths = (
{
closed = 1;
nodes = (
"515 -7 LINE",
"511 43 OFFCURVE",
"506 84 OFFCURVE",
"517 133 CURVE",
"493 141 LINE",
"462 69 OFFCURVE",
"389 27 OFFCURVE",
"301 27 CURVE SMOOTH",
"213 27 OFFCURVE",
"142 74 OFFCURVE",
"139 171 CURVE SMOOTH",
"136 265 OFFCURVE",
"204 339 OFFCURVE",
"309 339 CURVE SMOOTH",
"414 339 OFFCURVE",
"446 299 OFFCURVE",
"480 249 CURVE",
"502 257 LINE",
"492 309 OFFCURVE",
"474 357 OFFCURVE",
"504 438 CURVE",
"483 446 LINE",
"448 408 OFFCURVE",
"432 369 OFFCURVE",
"309 369 CURVE SMOOTH",
"207 369 OFFCURVE",
"137 432 OFFCURVE",
"140 521 CURVE SMOOTH",
"143 613 OFFCURVE",
"219 675 OFFCURVE",
"300 675 CURVE SMOOTH",
"404 675 OFFCURVE",
"455 633 OFFCURVE",
"484 526 CURVE",
"511 531 LINE",
"503 599 OFFCURVE",
"508 649 OFFCURVE",
"515 699 CURVE",
"500 707 LINE",
"456 687 OFFCURVE",
"409 709 OFFCURVE",
"298 709 CURVE SMOOTH",
"174 709 OFFCURVE",
"40 648 OFFCURVE",
"40 519 CURVE SMOOTH",
"40 414 OFFCURVE",
"98 370 OFFCURVE",
"171 348 CURVE",
"98 327 OFFCURVE",
"40 278 OFFCURVE",
"40 173 CURVE SMOOTH",
"40 44 OFFCURVE",
"160 -8 OFFCURVE",
"279 -8 CURVE SMOOTH",
"380 -8 OFFCURVE",
"459 13 OFFCURVE",
"498 -16 CURVE"
);
}
);
width = 557;
}
);
unicode = 0045;
},
{
color = 3;
glyphname = F;
lastChange = "2020-01-30 15:42:40 +0000";
layers = (
{
anchors = (
{
name = bottom;
position = "{269, 0}";
},
{
name = top;
position = "{269, 700}";
}
);
layerId = "0E913661-75E6-4305-BF89-58B721FF741E";
paths = (
{
closed = 1;
nodes = (
"148 2 OFFCURVE",
"178 1 OFFCURVE",
"313 -10 CURVE",
"313 21 LINE",
"219 44 OFFCURVE",
"193 45 OFFCURVE",
"192 105 CURVE SMOOTH",
"190 334 LINE",
"416 333 LINE SMOOTH",
"486 333 OFFCURVE",
"479 283 OFFCURVE",
"499 244 CURVE",
"528 248 LINE",
"516 334 OFFCURVE",
"514 393 OFFCURVE",
"528 479 CURVE",
"501 482 LINE",
"483 433 OFFCURVE",
"476 382 OFFCURVE",
"417 382 CURVE SMOOTH",
"189 381 LINE",
"189 606 LINE SMOOTH",
"189 651 OFFCURVE",
"208 658 OFFCURVE",
"310 658 CURVE SMOOTH",
"462 658 OFFCURVE",
"503 597 OFFCURVE",
"516 544 CURVE",
"546 548 LINE",
"544 601 OFFCURVE",
"543 653 OFFCURVE",
"545 699 CURVE",
"44 699 LINE",
"40 673 LINE",
"77 641 OFFCURVE",
"96 625 OFFCURVE",
"96 542 CURVE SMOOTH",
"96 118 LINE SMOOTH",
"96 53 OFFCURVE",
"96 53 OFFCURVE",
"44 16 CURVE",
"44 -10 LINE"
);
}
);
width = 561;
}
);
leftMetricsKey = H;
unicode = 0046;
},
{
color = 3;
glyphname = G;
lastChange = "2020-01-30 15:42:40 +0000";
layers = (
{
anchors = (
{
name = bottom;
position = "{344, 0}";
},
{
name = top;
position = "{344, 700}";
}
);
layerId = "0E913661-75E6-4305-BF89-58B721FF741E";
paths = (
{
closed = 1;
nodes = (
"570 -7 OFFCURVE",
"669 159 OFFCURVE",
"669 299 CURVE SMOOTH",
"669 456 OFFCURVE",
"562 578 OFFCURVE",
"423 578 CURVE SMOOTH",
"266 578 OFFCURVE",
"193 402 OFFCURVE",
"319 288 CURVE",
"340 303 LINE",
"265 404 OFFCURVE",
"301 521 OFFCURVE",
"415 521 CURVE SMOOTH",
"515 521 OFFCURVE",
"574 418 OFFCURVE",
"574 289 CURVE SMOOTH",
"574 165 OFFCURVE",
"491 33 OFFCURVE",
"355 33 CURVE SMOOTH",
"207 33 OFFCURVE",
"119 160 OFFCURVE",
"119 348 CURVE SMOOTH",
"119 556 OFFCURVE",
"256 662 OFFCURVE",
"388 662 CURVE SMOOTH",
"517 662 OFFCURVE",
"608 607 OFFCURVE",
"656 527 CURVE",
"685 537 LINE",
"670 569 OFFCURVE",
"641 650 OFFCURVE",
"657 705 CURVE",
"639 716 LINE",
"624 700 OFFCURVE",
"601 683 OFFCURVE",
"584 671 CURVE",
"539 681 OFFCURVE",
"484 706 OFFCURVE",
"385 706 CURVE SMOOTH",
"241 706 OFFCURVE",
"15 587 OFFCURVE",
"15 339 CURVE SMOOTH",
"15 141 OFFCURVE",
"164 -7 OFFCURVE",
"355 -7 CURVE SMOOTH"
);
}
);
width = 700;
}
);
leftMetricsKey = O;
rightMetricsKey = O;
unicode = 0047;
},
{
color = 3;
glyphname = H;
lastChange = "2020-01-30 15:42:40 +0000";
layers = (
{
anchors = (
{
name = bottom;
position = "{414, 0}";
},
{
name = center;
position = "{414, 350}";
},
{
name = top;
position = "{414, 700}";
},
{
name = topleft;
position = "{25, 700}";
}
);
layerId = "0E913661-75E6-4305-BF89-58B721FF741E";
paths = (
{
closed = 1;
nodes = (
"118 3 OFFCURVE",
"200 0 OFFCURVE",
"252 -9 CURVE",
"254 14 LINE",
"210 43 OFFCURVE",
"196 66 OFFCURVE",
"197 157 CURVE SMOOTH",
"198 310 LINE",
"379 311 LINE",
"385 330 LINE",
"373 341 OFFCURVE",
"348 367 OFFCURVE",
"348 412 CURVE SMOOTH",
"348 453 OFFCURVE",
"381 482 OFFCURVE",
"413 482 CURVE SMOOTH",
"444 482 OFFCURVE",
"480 453 OFFCURVE",
"480 412 CURVE SMOOTH",
"480 367 OFFCURVE",
"452 340 OFFCURVE",
"440 329 CURVE",
"446 311 LINE",
"620 309 LINE",
"621 157 LINE SMOOTH",
"622 66 OFFCURVE",
"608 53 OFFCURVE",
"564 14 CURVE",
"569 -9 LINE",
"621 0 OFFCURVE",
"701 3 OFFCURVE",
"772 -13 CURVE",
"776 11 LINE",
"740 33 OFFCURVE",
"719 63 OFFCURVE",
"719 154 CURVE SMOOTH",
"719 309 LINE",
"770 341 LINE",
"770 349 LINE",
"719 372 LINE",
"719 514 LINE SMOOTH",
"719 603 OFFCURVE",
"720 632 OFFCURVE",
"778 690 CURVE",
"772 712 LINE",
"698 695 OFFCURVE",
"616 700 OFFCURVE",
"568 712 CURVE",
"562 691 LINE",
"618 638 OFFCURVE",
"618 621 OFFCURVE",
"619 514 CURVE SMOOTH",
"620 372 LINE",
"511 371 LINE",
"537 453 OFFCURVE",
"494 517 OFFCURVE",
"412 517 CURVE SMOOTH",
"411 517 LINE SMOOTH",
"336 517 OFFCURVE",
"287 453 OFFCURVE",
"315 371 CURVE",
"198 372 LINE",
"199 514 LINE SMOOTH",
"199 603 OFFCURVE",
"200 638 OFFCURVE",
"256 691 CURVE",
"251 712 LINE",
"203 700 OFFCURVE",
"121 695 OFFCURVE",
"47 712 CURVE",
"40 690 LINE",
"98 632 OFFCURVE",
"99 603 OFFCURVE",
"99 514 CURVE SMOOTH",
"99 373 LINE",
"56 349 LINE",
"56 341 LINE",
"99 309 LINE",
"99 154 LINE SMOOTH",
"99 63 OFFCURVE",
"78 33 OFFCURVE",
"42 11 CURVE",
"47 -13 LINE"
);
}
);
width = 818;
}
);
unicode = 0048;
},
{
color = 3;
glyphname = I;
lastChange = "2020-02-10 11:22:36 +0000";
layers = (
{
anchors = (
{
name = bottom;
position = "{255, 0}";
},
{
name = ogonek;
position = "{461, 10}";
},
{
name = top;
position = "{255, 700}";
},
{
name = topleft;
position = "{17, 700}";
}
);
layerId = "0E913661-75E6-4305-BF89-58B721FF741E";
paths = (
{
closed = 1;
nodes = (
"137 4 OFFCURVE",
"356 4 OFFCURVE",
"479 -10 CURVE",
"482 18 LINE",
"369 42 OFFCURVE",
"312 40 OFFCURVE",
"312 140 CURVE SMOOTH",
"311 343 LINE",
"312 343 LINE",
"380 373 LINE",
"380 389 LINE",
"311 389 LINE",
"310 545 LINE SMOOTH",
"309 647 OFFCURVE",
"358 668 OFFCURVE",
"472 683 CURVE",
"468 710 LINE",
"331 700 OFFCURVE",
"191 697 OFFCURVE",
"45 710 CURVE",
"40 683 LINE",
"145 668 OFFCURVE",
"209 648 OFFCURVE",
"210 545 CURVE SMOOTH",
"211 389 LINE",
"210 389 LINE",
"146 360 LINE",
"146 343 LINE",
"211 343 LINE",
"212 140 LINE SMOOTH",
"212 39 OFFCURVE",
"161 44 OFFCURVE",
"40 18 CURVE",
"45 -10 LINE"
);
}
);
width = 512;
}
);
unicode = 0049;
},
{
color = 6;
glyphname = J;
lastChange = "2020-02-10 11:22:53 +0000";
layers = (
{
layerId = "0E913661-75E6-4305-BF89-58B721FF741E";
paths = (
{
closed = 1;
nodes = (
"341 -153 OFFCURVE",
"399 -59 OFFCURVE",
"399 60 CURVE SMOOTH",
"399 214 OFFCURVE",
"358 298 OFFCURVE",
"358 435 CURVE SMOOTH",
"358 525 OFFCURVE",
"379 599 OFFCURVE",
"426 708 CURVE",
"408 722 LINE",
"407 722 LINE",
"297 690 OFFCURVE",
"172 703 OFFCURVE",
"22 713 CURVE",
"19 678 LINE",
"174 670 OFFCURVE",
"314 644 OFFCURVE",
"332 619 CURVE",
"312 499 OFFCURVE",
"240 292 OFFCURVE",
"240 199 CURVE SMOOTH",
"240 159 OFFCURVE",
"335 140 OFFCURVE",
"335 48 CURVE SMOOTH",
"335 -54 OFFCURVE",
"284 -111 OFFCURVE",
"212 -111 CURVE SMOOTH",
"122 -111 OFFCURVE",
"64 -46 OFFCURVE",
"30 1 CURVE",
"5 -15 LINE",
"42 -80 OFFCURVE",
"105 -153 OFFCURVE",
"221 -153 CURVE SMOOTH"
);
}
);
width = 441;
}
);
unicode = 004A;
},
{
color = 6;
glyphname = K;
lastChange = "2020-02-10 11:23:00 +0000";
layers = (
{
layerId = "0E913661-75E6-4305-BF89-58B721FF741E";
paths = (
{
closed = 1;
nodes = (
"126 4 OFFCURVE",
"242 3 OFFCURVE",
"324 -10 CURVE",
"330 15 LINE",
"242 48 OFFCURVE",
"227 81 OFFCURVE",
"227 163 CURVE SMOOTH",
"227 292 LINE SMOOTH",
"227 344 OFFCURVE",
"261 357 OFFCURVE",
"285 357 CURVE SMOOTH",
"316 357 LINE SMOOTH",
"452 357 OFFCURVE",
"525 298 OFFCURVE",
"525 214 CURVE SMOOTH",
"525 157 OFFCURVE",
"506 102 OFFCURVE",
"506 59 CURVE SMOOTH",
"506 -29 OFFCURVE",
"643 -36 OFFCURVE",
"697 68 CURVE",
"685 85 LINE",
"619 38 OFFCURVE",
"602 67 OFFCURVE",
"602 84 CURVE SMOOTH",
"602 128 OFFCURVE",
"645 155 OFFCURVE",
"645 185 CURVE SMOOTH",
"645 267 OFFCURVE",
"521 356 OFFCURVE",
"407 383 CURVE",
"456 410 OFFCURVE",
"546 480 OFFCURVE",
"576 573 CURVE SMOOTH",
"600 648 OFFCURVE",
"655 661 OFFCURVE",
"717 675 CURVE",
"717 700 LINE",
"537 700 LINE",
"432 601 OFFCURVE",
"485 396 OFFCURVE",
"305 396 CURVE SMOOTH",
"228 396 LINE",
"225 566 LINE SMOOTH",
"224 629 OFFCURVE",
"250 646 OFFCURVE",
"329 676 CURVE",
"322 705 LINE",
"210 685 OFFCURVE",
"147 687 OFFCURVE",
"33 707 CURVE",
"20 679 LINE",
"103 644 OFFCURVE",
"127 623 OFFCURVE",
"127 569 CURVE SMOOTH",
"128 421 LINE",
"85 389 LINE",
"85 378 LINE",
"127 343 LINE",
"127 148 LINE SMOOTH",
"127 70 OFFCURVE",
"127 52 OFFCURVE",
"34 14 CURVE",
"40 -10 LINE"
);
}
);
width = 702;
}
);
unicode = 004B;
},
{
color = 3;
glyphname = L;
lastChange = "2020-02-10 11:23:30 +0000";
layers = (
{
anchors = (
{
name = bottom;
position = "{292, 0}";
},
{
name = center;
position = "{292, 350}";
},
{
name = top;
position = "{292, 700}";
},
{
name = topright;
position = "{557, 700}";
}
);
layerId = "0E913661-75E6-4305-BF89-58B721FF741E";
paths = (
{
closed = 1;
nodes = (
"217 2 OFFCURVE",
"386 5 OFFCURVE",
"549 -11 CURVE",
"559 4 LINE",
"530 76 OFFCURVE",
"528 152 OFFCURVE",
"539 224 CURVE",
"509 228 LINE",
"492 144 OFFCURVE",
"467 84 OFFCURVE",
"386 80 CURVE SMOOTH",
"195 70 LINE",
"196 580 LINE SMOOTH",
"196 643 OFFCURVE",
"226 663 OFFCURVE",
"284 682 CURVE",
"278 708 LINE",
"203 698 OFFCURVE",
"131 698 OFFCURVE",
"51 708 CURVE",
"45 687 LINE",
"108 652 OFFCURVE",
"95 616 OFFCURVE",
"95 553 CURVE SMOOTH",
"95 120 LINE SMOOTH",
"95 60 OFFCURVE",
"89 48 OFFCURVE",
"40 13 CURVE",
"49 -14 LINE"
);
}
);
width = 564;
}
);
leftMetricsKey = H;
unicode = 004C;
},
{
color = 3;
glyphname = M;
lastChange = "2020-02-10 11:30:14 +0000";
layers = (
{
anchors = (
{
name = bottom;
position = "{384, 0}";
},
{
name = top;
position = "{384, 700}";
}
);
layerId = "0E913661-75E6-4305-BF89-58B721FF741E";
paths = (
{
closed = 1;
nodes = (
"180 0 LINE",
"135 148 OFFCURVE",
"182 267 OFFCURVE",
"214 378 CURVE SMOOTH",
"259 535 LINE",
"393 2 LINE",
"417 2 LINE",
"578 535 LINE",
"619 378 LINE SMOOTH",
"649 263 OFFCURVE",
"694 148 OFFCURVE",
"649 0 CURVE",
"666 -15 LINE",
"824 83 LINE",
"727 273 OFFCURVE",
"691 472 OFFCURVE",
"610 709 CURVE",
"586 710 LINE",
"410 129 LINE",
"264 709 LINE",
"239 709 LINE",
"168 472 OFFCURVE",
"102 273 OFFCURVE",
"5 83 CURVE",
"163 -15 LINE"
);
}
);
width = 829;
}
);
unicode = 004D;
},
{
color = 3;
glyphname = N;
lastChange = "2020-02-10 11:30:34 +0000";
layers = (
{
anchors = (
{
name = bottom;
position = "{442, 0}";
},
{
name = top;
position = "{442, 700}";
}
);
layerId = "0E913661-75E6-4305-BF89-58B721FF741E";
paths = (
{
closed = 1;
nodes = (
"117 4 OFFCURVE",
"231 4 OFFCURVE",
"334 -10 CURVE",
"337 18 LINE",
"244 42 OFFCURVE",
"232 40 OFFCURVE",
"232 140 CURVE SMOOTH",
"231 339 LINE",
"296 366 LINE",
"296 380 LINE",
"231 380 LINE",
"230 573 LINE",
"658 77 LINE",
"655 39 OFFCURVE",
"641 37 OFFCURVE",
"576 18 CURVE",
"581 -10 LINE",
"643 4 OFFCURVE",
"757 4 OFFCURVE",
"840 -10 CURVE",
"843 18 LINE",
"770 42 OFFCURVE",
"758 40 OFFCURVE",
"758 140 CURVE SMOOTH",
"757 339 LINE",
"822 366 LINE",
"822 380 LINE",
"757 380 LINE",
"756 545 LINE SMOOTH",
"755 647 OFFCURVE",
"759 668 OFFCURVE",
"843 683 CURVE",
"839 710 LINE",
"727 700 OFFCURVE",
"697 697 OFFCURVE",
"571 710 CURVE",
"566 683 LINE",
"651 668 OFFCURVE",
"655 648 OFFCURVE",
"656 545 CURVE SMOOTH",
"657 380 LINE",
"596 353 LINE",
"596 337 LINE",
"657 337 LINE",
"658 147 LINE",
"242 631 LINE",
"256 650 OFFCURVE",
"286 659 OFFCURVE",
"347 683 CURVE",
"343 710 LINE",
"201 680 OFFCURVE",
"171 677 OFFCURVE",
"25 710 CURVE",
"20 683 LINE",
"125 648 OFFCURVE",
"129 618 OFFCURVE",
"130 515 CURVE SMOOTH",
"131 380 LINE",
"70 353 LINE",
"70 337 LINE",
"131 337 LINE",
"132 140 LINE SMOOTH",
"133 39 OFFCURVE",
"141 44 OFFCURVE",
"39 18 CURVE",
"44 -10 LINE"
);
}
);
width = 883;
}
);
rightMetricsKey = H;
unicode = 004E;
},
{
color = 3;
glyphname = O;
lastChange = "2020-01-30 15:42:40 +0000";
layers = (
{
anchors = (
{
name = bottom;
position = "{371, 0}";
},
{
name = center;
position = "{371, 350}";
},
{
name = ogonek;
position = "{667, 10}";
},
{
name = top;
position = "{371, 700}";
},
{
name = topleft;
position = "{20, 700}";
},
{
name = topright;
position = "{721, 700}";
}
);
layerId = "0E913661-75E6-4305-BF89-58B721FF741E";
paths = (
{
closed = 1;
nodes = (
"569 -10 OFFCURVE",
"726 154 OFFCURVE",
"726 351 CURVE SMOOTH",
"726 552 OFFCURVE",
"569 712 OFFCURVE",
"369 712 CURVE SMOOTH",
"171 712 OFFCURVE",
"15 552 OFFCURVE",
"15 351 CURVE SMOOTH",
"15 154 OFFCURVE",
"171 -10 OFFCURVE",
"369 -10 CURVE SMOOTH"
);
},
{
closed = 1;
nodes = (
"219 35 OFFCURVE",
"125 165 OFFCURVE",
"125 351 CURVE SMOOTH",
"125 532 OFFCURVE",
"210 667 OFFCURVE",
"369 667 CURVE SMOOTH",
"514 667 OFFCURVE",
"616 530 OFFCURVE",
"616 351 CURVE SMOOTH",
"616 179 OFFCURVE",
"526 35 OFFCURVE",
"369 35 CURVE SMOOTH"
);
}
);
width = 741;
}
);
unicode = 004F;
},
{
color = 3;
glyphname = P;
lastChange = "2020-02-10 11:30:55 +0000";
layers = (
{
anchors = (
{
name = bottom;
position = "{335, 0}";
},
{
name = top;
position = "{335, 700}";
}
);
layerId = "0E913661-75E6-4305-BF89-58B721FF741E";
paths = (
{
closed = 1;
nodes = (
"148 8 OFFCURVE",
"194 8 OFFCURVE",
"296 -9 CURVE",
"301 17 LINE",
"218 50 OFFCURVE",
"212 60 OFFCURVE",
"211 138 CURVE SMOOTH",
"211 186 LINE",
"243 166 OFFCURVE",
"296 131 OFFCURVE",
"368 104 CURVE",
"507 106 OFFCURVE",
"669 195 OFFCURVE",
"669 416 CURVE SMOOTH",
"669 611 OFFCURVE",
"534 710 OFFCURVE",
"389 710 CURVE SMOOTH",
"247 710 OFFCURVE",
"155 668 OFFCURVE",
"36 713 CURVE",
"25 686 LINE",
"91 658 OFFCURVE",
"111 642 OFFCURVE",
"111 568 CURVE SMOOTH",
"111 376 LINE",
"97 371 OFFCURVE",
"83 363 OFFCURVE",
"73 351 CURVE",
"75 339 LINE",
"110 320 OFFCURVE",
"112 284 OFFCURVE",
"112 250 CURVE SMOOTH",
"111 133 LINE SMOOTH",
"111 76 OFFCURVE",
"115 51 OFFCURVE",
"58 13 CURVE",
"66 -9 LINE"
);
},
{
closed = 1;
nodes = (
"319 165 OFFCURVE",
"256 187 OFFCURVE",
"210 241 CURVE",
"206 620 LINE",
"242 649 OFFCURVE",
"298 673 OFFCURVE",
"373 673 CURVE SMOOTH",
"494 673 OFFCURVE",
"571 571 OFFCURVE",
"571 420 CURVE SMOOTH",
"571 259 OFFCURVE",
"480 165 OFFCURVE",
"370 165 CURVE SMOOTH"
);
}
);
width = 699;
}
);
unicode = 0050;
},
{
color = 3;
glyphname = Q;
lastChange = "2020-01-30 15:42:40 +0000";
layers = (
{
anchors = (
{
name = bottom;
position = "{470, 0}";
},
{
name = center;
position = "{371, 350}";
},
{
name = ogonek;
position = "{667, 10}";
},
{
name = top;
position = "{470, 700}";
},
{
name = topleft;
position = "{20, 700}";
},
{
name = topright;
position = "{721, 700}";
}
);
layerId = "0E913661-75E6-4305-BF89-58B721FF741E";
paths = (
{
closed = 1;
nodes = (
"376 -10 OFFCURVE",
"383 -10 OFFCURVE",
"391 -9 CURVE",
"389 -10 LINE",
"560 -10 OFFCURVE",
"672 63 OFFCURVE",
"774 63 CURVE SMOOTH",
"846 63 OFFCURVE",
"789 -9 OFFCURVE",
"856 -9 CURVE SMOOTH",
"888 -9 OFFCURVE",
"912 27 OFFCURVE",
"918 50 CURVE",
"901 56 LINE",
"882 26 OFFCURVE",
"859 21 OFFCURVE",
"859 46 CURVE SMOOTH",
"859 79 OFFCURVE",
"876 149 OFFCURVE",
"802 149 CURVE SMOOTH",
"743 149 OFFCURVE",
"657 95 OFFCURVE",
"587 65 CURVE",
"672 131 OFFCURVE",
"726 235 OFFCURVE",
"726 351 CURVE SMOOTH",
"726 552 OFFCURVE",
"569 712 OFFCURVE",
"369 712 CURVE SMOOTH",
"171 712 OFFCURVE",
"15 552 OFFCURVE",
"15 351 CURVE SMOOTH",
"15 154 OFFCURVE",
"171 -10 OFFCURVE",
"369 -10 CURVE SMOOTH"
);
},
{
closed = 1;
nodes = (
"219 35 OFFCURVE",
"125 165 OFFCURVE",
"125 351 CURVE SMOOTH",
"125 532 OFFCURVE",
"210 667 OFFCURVE",
"369 667 CURVE SMOOTH",
"514 667 OFFCURVE",
"616 530 OFFCURVE",
"616 351 CURVE SMOOTH",
"616 179 OFFCURVE",
"526 35 OFFCURVE",
"369 35 CURVE SMOOTH"
);
}
);
width = 918;
}
);
leftMetricsKey = O;
unicode = 0051;
},
{
color = 3;
glyphname = Q_strok;
lastChange = "2020-02-10 11:33:26 +0000";
layers = (
{
anchors = (
{
name = bottom;
position = "{371, 0}";
},
{
name = center;
position = "{371, 350}";
},
{
name = ogonek;
position = "{667, 10}";
},
{
name = top;
position = "{371, 700}";
},
{
name = topleft;
position = "{20, 700}";
},
{
name = topright;
position = "{721, 700}";
}
);
layerId = "0E913661-75E6-4305-BF89-58B721FF741E";
paths = (
{
closed = 1;
nodes = (
"722 10 OFFCURVE",
"740 32 OFFCURVE",
"756 53 CURVE",
"823 50 OFFCURVE",
"831 -9 OFFCURVE",
"896 -9 CURVE SMOOTH",
"928 -9 OFFCURVE",
"952 27 OFFCURVE",
"958 50 CURVE",
"941 56 LINE",
"922 26 OFFCURVE",
"899 21 OFFCURVE",
"899 46 CURVE SMOOTH",
"899 79 OFFCURVE",
"899 125 OFFCURVE",
"825 125 CURVE SMOOTH",
"820 125 OFFCURVE",
"814 125 OFFCURVE",
"809 124 CURVE",
"864 203 OFFCURVE",
"905 277 OFFCURVE",
"962 367 CURVE",
"890 428 LINE",
"808 382 LINE",
"825 361 LINE",
"851 371 OFFCURVE",
"871 373 OFFCURVE",
"897 363 CURVE",
"878 297 OFFCURVE",
"834 206 OFFCURVE",
"766 113 CURVE",
"714 94 OFFCURVE",
"654 59 OFFCURVE",
"565 49 CURVE",
"663 114 OFFCURVE",
"726 226 OFFCURVE",
"726 351 CURVE SMOOTH",
"726 552 OFFCURVE",
"569 712 OFFCURVE",
"369 712 CURVE SMOOTH",
"171 712 OFFCURVE",
"15 552 OFFCURVE",
"15 351 CURVE SMOOTH",
"15 154 OFFCURVE",
"171 -10 OFFCURVE",
"369 -10 CURVE SMOOTH",
"376 -10 OFFCURVE",
"383 -10 OFFCURVE",
"391 -9 CURVE",
"389 -10 LINE",
"541 -10 OFFCURVE",
"629 40 OFFCURVE",
"718 51 CURVE",
"701 31 OFFCURVE",
"684 11 OFFCURVE",
"665 -9 CURVE",
"702 -13 LINE"
);
},
{
closed = 0;
nodes = (
"388 -10 LINE"
);
},
{
closed = 1;
nodes = (
"219 35 OFFCURVE",
"125 165 OFFCURVE",
"125 351 CURVE SMOOTH",
"125 532 OFFCURVE",
"210 667 OFFCURVE",
"369 667 CURVE SMOOTH",
"514 667 OFFCURVE",
"616 530 OFFCURVE",
"616 351 CURVE SMOOTH",
"616 179 OFFCURVE",
"526 35 OFFCURVE",
"369 35 CURVE SMOOTH"
);
}
);
width = 962;
}
);
leftMetricsKey = O;
},
{
color = 3;
glyphname = R;
lastChange = "2020-02-10 11:31:53 +0000";
layers = (
{
anchors = (
{
name = bottom;
position = "{359, 0}";
},
{
name = top;
position = "{359, 700}";
}
);
layerId = "0E913661-75E6-4305-BF89-58B721FF741E";
paths = (
{
closed = 1;
nodes = (
"126 4 OFFCURVE",
"242 3 OFFCURVE",
"324 -10 CURVE",
"330 15 LINE",
"242 48 OFFCURVE",
"227 81 OFFCURVE",
"227 163 CURVE SMOOTH",
"227 292 LINE SMOOTH",
"227 344 OFFCURVE",
"261 357 OFFCURVE",
"285 357 CURVE SMOOTH",
"316 357 LINE SMOOTH",
"452 357 OFFCURVE",
"525 298 OFFCURVE",
"525 214 CURVE SMOOTH",
"525 157 OFFCURVE",
"506 102 OFFCURVE",
"506 59 CURVE SMOOTH",
"506 -29 OFFCURVE",
"643 -36 OFFCURVE",
"697 68 CURVE",
"685 85 LINE",
"619 38 OFFCURVE",
"602 67 OFFCURVE",
"602 84 CURVE SMOOTH",
"602 128 OFFCURVE",
"645 155 OFFCURVE",
"645 185 CURVE SMOOTH",
"645 260 OFFCURVE",
"543 340 OFFCURVE",
"439 374 CURVE",
"501 384 OFFCURVE",
"635 420 OFFCURVE",
"635 542 CURVE SMOOTH",
"635 676 OFFCURVE",
"461 710 OFFCURVE",
"375 710 CURVE SMOOTH",
"228 710 OFFCURVE",
"177 674 OFFCURVE",
"33 704 CURVE",
"20 676 LINE",
"103 641 OFFCURVE",
"127 620 OFFCURVE",
"127 566 CURVE SMOOTH",
"128 421 LINE",
"85 389 LINE",
"85 378 LINE",
"127 343 LINE",
"127 148 LINE SMOOTH",
"127 70 OFFCURVE",
"127 52 OFFCURVE",
"34 14 CURVE",
"40 -10 LINE"
);
},
{
closed = 1;
nodes = (
"225 563 LINE SMOOTH",
"224 626 OFFCURVE",
"273 668 OFFCURVE",
"362 668 CURVE SMOOTH",
"437 668 OFFCURVE",
"520 621 OFFCURVE",
"523 537 CURVE SMOOTH",
"525 471 OFFCURVE",
"479 396 OFFCURVE",
"383 396 CURVE SMOOTH",
"228 396 LINE"
);
}
);
width = 702;
}
);
unicode = 0052;
},
{
color = 3;
glyphname = S;
lastChange = "2020-02-10 11:32:10 +0000";
layers = (
{
anchors = (
{
name = bottom;
position = "{353, 0}";
},
{
name = top;
position = "{353, 700}";
}
);
layerId = "0E913661-75E6-4305-BF89-58B721FF741E";
paths = (
{
closed = 1;
nodes = (
"79 0 OFFCURVE",
"125 33 OFFCURVE",
"146 33 CURVE SMOOTH",
"180 33 OFFCURVE",
"316 -9 OFFCURVE",
"397 -9 CURVE SMOOTH",
"508 -9 OFFCURVE",
"675 53 OFFCURVE",
"675 219 CURVE SMOOTH",
"675 356 OFFCURVE",
"584 422 OFFCURVE",
"441 422 CURVE SMOOTH",
"371 422 OFFCURVE",
"335 418 OFFCURVE",
"276 418 CURVE SMOOTH",
"203 418 OFFCURVE",
"155 459 OFFCURVE",
"155 527 CURVE SMOOTH",
"155 620 OFFCURVE",
"250 672 OFFCURVE",
"364 672 CURVE SMOOTH",
"488 672 OFFCURVE",
"589 602 OFFCURVE",
"653 471 CURVE",
"682 485 LINE",
"657 562 OFFCURVE",
"648 625 OFFCURVE",
"688 729 CURVE",
"667 740 LINE",
"635 698 OFFCURVE",
"612 689 OFFCURVE",
"583 689 CURVE SMOOTH",
"532 689 OFFCURVE",
"484 712 OFFCURVE",
"363 712 CURVE SMOOTH",
"217 712 OFFCURVE",
"55 656 OFFCURVE",
"55 484 CURVE SMOOTH",
"55 366 OFFCURVE",
"151 324 OFFCURVE",
"253 324 CURVE SMOOTH",
"323 324 OFFCURVE",
"362 327 OFFCURVE",
"430 327 CURVE SMOOTH",
"524 327 OFFCURVE",
"587 285 OFFCURVE",
"587 199 CURVE SMOOTH",
"587 90 OFFCURVE",
"507 44 OFFCURVE",
"389 45 CURVE SMOOTH",
"261 46 OFFCURVE",
"177 111 OFFCURVE",
"91 263 CURVE",
"59 249 LINE",
"110 150 OFFCURVE",
"116 71 OFFCURVE",
"30 -9 CURVE",
"48 -29 LINE"
);
}
);
width = 718;
}
);
unicode = 0053;
},
{
color = 3;
glyphname = T;
lastChange = "2020-02-10 11:32:24 +0000";
layers = (
{
anchors = (
{
name = bottom;
position = "{362, 0}";
},
{
name = center;
position = "{362, 350}";
},
{
name = top;
position = "{362, 700}";
}
);
layerId = "0E913661-75E6-4305-BF89-58B721FF741E";
paths = (
{
closed = 1;
nodes = (
"303 3 OFFCURVE",
"414 3 OFFCURVE",
"562 -8 CURVE",
"562 23 LINE",
"458 54 OFFCURVE",
"426 78 OFFCURVE",
"421 188 CURVE SMOOTH",
"402 613 LINE",
"463 613 LINE SMOOTH",
"622 613 OFFCURVE",
"663 585 OFFCURVE",
"683 528 CURVE",
"719 536 LINE",
"704 622 OFFCURVE",
"701 682 OFFCURVE",
"716 748 CURVE",
"688 758 LINE",
"670 729 OFFCURVE",
"612 681 OFFCURVE",
"454 681 CURVE SMOOTH",
"388 681 LINE",
"369 718 LINE",
"354 719 LINE",
"334 680 LINE",
"280 680 LINE SMOOTH",
"112 680 OFFCURVE",
"54 728 OFFCURVE",
"36 757 CURVE",
"8 747 LINE",
"23 681 OFFCURVE",
"20 621 OFFCURVE",
"5 535 CURVE",
"41 527 LINE",
"61 584 OFFCURVE",
"102 612 OFFCURVE",
"291 613 CURVE SMOOTH",
"321 613 LINE",
"307 187 LINE SMOOTH",
"304 78 OFFCURVE",
"269 58 OFFCURVE",
"165 22 CURVE",
"165 -8 LINE"
);
}
);
width = 724;
}
);
unicode = 0054;
},
{
color = 6;
glyphname = U;
lastChange = "2020-02-10 11:32:44 +0000";
layers = (
{
anchors = (
{
name = bottom;
position = "{356, 0}";
},
{
name = ogonek;
position = "{675, 10}";
},
{
name = top;
position = "{356, 700}";
},
{
name = topright;
position = "{735, 700}";
}
);
layerId = "0E913661-75E6-4305-BF89-58B721FF741E";
paths = (
{
closed = 1;
nodes = (
"556 -10 OFFCURVE",
"628 86 OFFCURVE",
"628 237 CURVE SMOOTH",
"628 295 OFFCURVE",
"637 469 OFFCURVE",
"638 559 CURVE SMOOTH",
"639 628 OFFCURVE",
"686 659 OFFCURVE",
"725 679 CURVE",
"724 708 LINE",
"638 697 OFFCURVE",
"561 697 OFFCURVE",
"475 708 CURVE",
"474 684 LINE",
"536 659 OFFCURVE",
"564 618 OFFCURVE",
"568 560 CURVE SMOOTH",
"572 506 OFFCURVE",
"577 300 OFFCURVE",
"577 236 CURVE SMOOTH",
"577 107 OFFCURVE",
"497 33 OFFCURVE",
"377 33 CURVE SMOOTH",
"249 33 OFFCURVE",
"181 118 OFFCURVE",
"181 256 CURVE SMOOTH",
"181 317 OFFCURVE",
"182 470 OFFCURVE",
"192 559 CURVE SMOOTH",
"199 619 OFFCURVE",
"233 664 OFFCURVE",
"271 684 CURVE",
"270 708 LINE",
"184 700 OFFCURVE",
"93 700 OFFCURVE",
"7 708 CURVE",
"5 684 LINE",
"53 656 OFFCURVE",
"83 625 OFFCURVE",
"86 560 CURVE SMOOTH",
"88 507 OFFCURVE",
"86 300 OFFCURVE",
"86 236 CURVE SMOOTH",
"86 99 OFFCURVE",
"161 -10 OFFCURVE",
"354 -10 CURVE SMOOTH"
);
}
);
width = 730;
}
);
unicode = 0055;
},
{
color = 3;
glyphname = V;
lastChange = "2020-02-10 11:33:03 +0000";
layers = (
{
anchors = (
{
name = bottom;
position = "{373, 0}";
},
{
name = top;
position = "{373, 700}";
}
);
layerId = "0E913661-75E6-4305-BF89-58B721FF741E";
paths = (
{
closed = 1;
nodes = (
"391 -11 LINE",
"748 640 LINE",
"690 657 OFFCURVE",
"633 680 OFFCURVE",
"575 711 CURVE",
"562 690 LINE",
"628 621 OFFCURVE",
"622 588 OFFCURVE",
"592 521 CURVE SMOOTH",
"393 82 LINE",
"197 541 LINE SMOOTH",
"168 609 OFFCURVE",
"184 642 OFFCURVE",
"217 685 CURVE",
"205 711 LINE",
"138 680 OFFCURVE",
"72 653 OFFCURVE",
"5 632 CURVE",
"370 -11 LINE"
);
}
);
width = 753;
}
);
unicode = 0056;
},
{
color = 6;
glyphname = W;
lastChange = "2020-01-30 15:42:40 +0000";
layers = (
{
layerId = "0E913661-75E6-4305-BF89-58B721FF741E";
paths = (
{
closed = 1;
nodes = (
"421 -11 LINE",
"798 640 LINE",
"740 657 OFFCURVE",
"683 680 OFFCURVE",
"625 711 CURVE",
"612 690 LINE",
"678 621 OFFCURVE",
"674 586 OFFCURVE",
"642 521 CURVE SMOOTH",
"423 78 LINE",
"197 541 LINE SMOOTH",
"165 607 OFFCURVE",
"184 642 OFFCURVE",
"217 685 CURVE",
"205 711 LINE",
"138 680 OFFCURVE",
"72 653 OFFCURVE",
"5 632 CURVE",
"400 -11 LINE"
);
},
{
closed = 1;
nodes = (
"434 274 LINE",
"605 597 LINE",
"578 605 OFFCURVE",
"534 624 OFFCURVE",
"508 638 CURVE",
"498 620 LINE",
"529 588 OFFCURVE",
"524 564 OFFCURVE",
"512 532 CURVE SMOOTH",
"435 323 LINE",
"359 551 LINE SMOOTH",
"348 583 OFFCURVE",
"363 608 OFFCURVE",
"378 629 CURVE",
"373 640 LINE",
"341 626 OFFCURVE",
"281 603 OFFCURVE",
"249 594 CURVE",
"424 274 LINE"
);
}
);
width = 803;
}
);
unicode = 0057;
},
{
color = 6;
glyphname = X;
lastChange = "2020-02-10 11:33:43 +0000";
layers = (
{
anchors = (
{
name = bottom;
position = "{310, 0}";
},
{
name = top;
position = "{310, 700}";
}
);
layerId = "0E913661-75E6-4305-BF89-58B721FF741E";
paths = (
{
closed = 1;
nodes = (
"215 -18 LINE",
"132 56 OFFCURVE",
"122 86 OFFCURVE",
"180 161 CURVE SMOOTH",
"295 309 LINE",
"423 161 LINE SMOOTH",
"493 80 OFFCURVE",
"491 63 OFFCURVE",
"428 -21 CURVE",
"444 -39 LINE",
"498 11 OFFCURVE",
"552 56 OFFCURVE",
"606 94 CURVE",
"364 379 LINE",
"584 621 LINE",
"522 649 OFFCURVE",
"461 681 OFFCURVE",
"403 717 CURVE",
"385 694 LINE",
"454 627 OFFCURVE",
"489 612 OFFCURVE",
"439 549 CURVE SMOOTH",
"333 416 LINE",
"217 552 LINE SMOOTH",
"173 604 OFFCURVE",
"194 644 OFFCURVE",
"233 696 CURVE",
"216 717 LINE",
"160 679 OFFCURVE",
"99 643 OFFCURVE",
"35 611 CURVE",
"266 343 LINE",
"5 78 LINE",
"73 43 OFFCURVE",
"136 4 OFFCURVE",
"196 -39 CURVE"
);
},
{
closed = 0;
nodes = (
"5 78 LINE"
);
}
);
width = 611;
}
);
unicode = 0058;
},
{
color = 6;
glyphname = Y;
lastChange = "2020-02-10 11:33:50 +0000";
layers = (
{
anchors = (
{
name = bottom;
position = "{276, 0}";
},
{
name = top;
position = "{276, 700}";
},
{
name = topleft;
position = "{-24, 700}";
}
);
layerId = "0E913661-75E6-4305-BF89-58B721FF741E";
paths = (
{
closed = 1;
nodes = (
"196 3 OFFCURVE",
"369 4 OFFCURVE",
"461 -7 CURVE",
"461 20 LINE",
"409 27 OFFCURVE",
"335 63 OFFCURVE",
"334 114 CURVE SMOOTH",
"330 288 LINE",
"579 656 LINE",
"406 715 LINE",
"392 688 LINE",
"446 658 OFFCURVE",
"484 636 OFFCURVE",
"464 601 CURVE SMOOTH",
"307 320 LINE",
"162 583 LINE SMOOTH",
"135 631 OFFCURVE",
"141 648 OFFCURVE",
"198 690 CURVE",
"184 714 LINE",
"124 686 OFFCURVE",
"75 671 OFFCURVE",
"5 643 CURVE",
"237 275 LINE",
"237 114 LINE SMOOTH",
"237 63 OFFCURVE",
"148 28 OFFCURVE",
"106 20 CURVE",
"106 -7 LINE"
);
}
);
width = 584;
}
);
unicode = 0059;
},
{
color = 6;
glyphname = Z;
lastChange = "2020-01-30 15:42:40 +0000";
layers = (
{
anchors = (
{
name = bottom;
position = "{389, 0}";
},
{
name = top;
position = "{389, 700}";
}
);
layerId = "0E913661-75E6-4305-BF89-58B721FF741E";
paths = (
{
closed = 1;
nodes = (
"248 -2 OFFCURVE",
"412 -3 OFFCURVE",
"635 -5 CURVE",
"658 186 LINE",
"624 189 LINE",
"601 81 OFFCURVE",
"509 55 OFFCURVE",
"426 52 CURVE SMOOTH",
"194 45 LINE",
"351 264 OFFCURVE",
"602 625 OFFCURVE",
"680 689 CURVE",
"668 710 LINE",
"482 695 OFFCURVE",
"295 692 OFFCURVE",
"109 710 CURVE",
"66 546 LINE",
"95 539 LINE",
"159 631 OFFCURVE",
"194 651 OFFCURVE",
"316 653 CURVE SMOOTH",
"516 656 LINE",
"443 556 OFFCURVE",
"156 127 OFFCURVE",
"20 17 CURVE",
"27 -6 LINE"
);
}
);
width = 700;
}
);
unicode = 005A;
},
{
color = 4;
glyphname = a;
lastChange = "2020-02-10 11:34:17 +0000";
layers = (
{
anchors = (
{
name = bottom;
position = "{158, 0}";
},
{
name = ogonek;
position = "{295, 10}";
},
{
name = top;
position = "{158, 390}";
}
);
layerId = "0E913661-75E6-4305-BF89-58B721FF741E";
paths = (
{
closed = 1;
nodes = (
"328 29 LINE",
"319 60 LINE",
"297 50 OFFCURVE",
"276 50 OFFCURVE",
"276 93 CURVE SMOOTH",
"276 172 OFFCURVE",
"278 281 OFFCURVE",
"278 330 CURVE SMOOTH",
"278 349 OFFCURVE",
"203 400 OFFCURVE",
"177 400 CURVE SMOOTH",
"165 400 OFFCURVE",
"86 367 OFFCURVE",
"37 347 CURVE",
"48 313 LINE",
"82 329 OFFCURVE",
"103 338 OFFCURVE",
"124 338 CURVE SMOOTH",
"156 338 OFFCURVE",
"192 318 OFFCURVE",
"192 282 CURVE SMOOTH",
"191 236 LINE",
"142 229 OFFCURVE",
"82 216 OFFCURVE",
"68 205 CURVE",
"46 177 OFFCURVE",
"25 138 OFFCURVE",
"25 92 CURVE SMOOTH",
"25 25 OFFCURVE",
"55 -9 OFFCURVE",
"112 -9 CURVE",
"154 11 OFFCURVE",
"178 39 OFFCURVE",
"194 76 CURVE",
"212 -7 LINE",
"221 -11 LINE"
);
},
{
closed = 1;
nodes = (
"95 79 OFFCURVE",
"66 96 OFFCURVE",
"66 130 CURVE SMOOTH",
"66 179 OFFCURVE",
"112 192 OFFCURVE",
"192 198 CURVE",
"201 101 OFFCURVE",
"152 79 OFFCURVE",
"117 79 CURVE SMOOTH"
);
}
);
width = 338;
}
);
unicode = 0061;
},
{
color = 4;
glyphname = a_macr;
lastChange = "2020-02-10 11:34:30 +0000";
layers = (
{
anchors = (
{
name = _top;
position = "{158, 390}";
},
{
name = bottom;
position = "{159, 0}";
},
{
name = ogonek;
position = "{293, 10}";
},
{
name = top;
position = "{159, 390}";
}
);
layerId = "0E913661-75E6-4305-BF89-58B721FF741E";
paths = (
{
closed = 1;
nodes = (
"328 29 LINE",
"319 60 LINE",
"297 50 OFFCURVE",
"276 50 OFFCURVE",
"276 93 CURVE SMOOTH",
"276 172 OFFCURVE",
"278 281 OFFCURVE",
"278 330 CURVE SMOOTH",
"278 349 OFFCURVE",
"203 400 OFFCURVE",
"177 400 CURVE SMOOTH",
"165 400 OFFCURVE",
"86 367 OFFCURVE",
"37 347 CURVE",
"48 313 LINE",
"82 329 OFFCURVE",
"103 338 OFFCURVE",
"124 338 CURVE SMOOTH",
"156 338 OFFCURVE",
"192 318 OFFCURVE",
"192 282 CURVE SMOOTH",
"191 236 LINE",
"142 229 OFFCURVE",
"82 216 OFFCURVE",
"68 205 CURVE",
"46 177 OFFCURVE",
"25 138 OFFCURVE",
"25 92 CURVE SMOOTH",
"25 25 OFFCURVE",
"55 -9 OFFCURVE",
"112 -9 CURVE",
"154 11 OFFCURVE",
"178 39 OFFCURVE",
"194 76 CURVE",
"212 -7 LINE",
"221 -11 LINE"
);
},
{
closed = 1;
nodes = (
"95 79 OFFCURVE",
"66 96 OFFCURVE",
"66 130 CURVE SMOOTH",
"66 179 OFFCURVE",
"112 192 OFFCURVE",
"192 198 CURVE",
"201 101 OFFCURVE",
"152 79 OFFCURVE",
"117 79 CURVE SMOOTH"
);
},
{
closed = 1;
nodes = (
"288 533 LINE",
"156 549 OFFCURVE",
"103 566 OFFCURVE",
"90 591 CURVE",
"71 590 LINE",
"66 564 OFFCURVE",
"58 537 OFFCURVE",
"49 511 CURVE",
"116 506 OFFCURVE",
"212 493 OFFCURVE",
"267 483 CURVE"
);
}
);
width = 338;
}
);
leftMetricsKey = a;
rightMetricsKey = a;
unicode = 0101;
},
{
color = 4;
glyphname = b;
lastChange = "2020-02-10 11:48:17 +0000";
layers = (
{
anchors = (
{
name = bottom;
position = "{236, 0}";
},
{
name = top;
position = "{236, 700}";
}
);
layerId = "0E913661-75E6-4305-BF89-58B721FF741E";
paths = (
{
closed = 1;
nodes = (
"281 -9 OFFCURVE",
"456 78 OFFCURVE",
"456 228 CURVE SMOOTH",
"456 335 OFFCURVE",
"409 401 OFFCURVE",
"268 401 CURVE SMOOTH",
"249 401 OFFCURVE",
"204 390 OFFCURVE",
"154 377 CURVE",
"155 500 OFFCURVE",
"159 633 OFFCURVE",
"169 696 CURVE",
"149 711 LINE",
"104 678 OFFCURVE",
"61 652 OFFCURVE",
"20 636 CURVE",
"21 615 LINE",
"44 601 OFFCURVE",
"66 584 OFFCURVE",
"66 540 CURVE SMOOTH",
"66 532 OFFCURVE",
"68 452 OFFCURVE",
"69 353 CURVE",
"56 350 OFFCURVE",
"44 346 OFFCURVE",
"33 343 CURVE",
"33 333 LINE",
"70 313 LINE",
"71 197 OFFCURVE",
"72 66 OFFCURVE",
"69 0 CURVE",
"118 2 OFFCURVE",
"189 -9 OFFCURVE",
"250 -9 CURVE SMOOTH"
);
},
{
closed = 1;
nodes = (
"204 54 OFFCURVE",
"158 81 OFFCURVE",
"156 138 CURVE SMOOTH",
"155 172 OFFCURVE",
"154 252 OFFCURVE",
"154 343 CURVE",
"177 351 OFFCURVE",
"204 356 OFFCURVE",
"233 356 CURVE SMOOTH",
"325 356 OFFCURVE",
"381 284 OFFCURVE",
"381 202 CURVE SMOOTH",
"381 109 OFFCURVE",
"335 54 OFFCURVE",
"275 54 CURVE SMOOTH"
);
}
);
width = 476;
}
);
rightMetricsKey = o;
unicode = 0062;
},
{
color = 4;
glyphname = c;
lastChange = "2020-01-30 15:42:40 +0000";
layers = (
{
anchors = (
{
name = bottom;
position = "{161, 0}";
},
{
name = top;
position = "{161, 390}";
}
);
layerId = "0E913661-75E6-4305-BF89-58B721FF741E";
paths = (
{
closed = 1;
nodes = (
"227 -8 OFFCURVE",
"264 25 OFFCURVE",
"298 42 CURVE",
"293 65 LINE",
"191 36 OFFCURVE",
"110 83 OFFCURVE",
"110 205 CURVE SMOOTH",
"110 249 OFFCURVE",
"114 287 OFFCURVE",
"129 330 CURVE",
"177 333 OFFCURVE",
"227 325 OFFCURVE",
"264 306 CURVE",
"270 309 LINE",
"281 388 LINE",
"256 395 OFFCURVE",
"220 401 OFFCURVE",
"147 391 CURVE",
"75 338 LINE",
"55 309 OFFCURVE",
"35 266 OFFCURVE",
"35 191 CURVE SMOOTH",
"35 76 OFFCURVE",
"80 -8 OFFCURVE",
"180 -8 CURVE SMOOTH"
);
}
);
width = 298;
}
);
unicode = 0063;
},
{
color = 4;
glyphname = c_t;
lastChange = "2020-02-10 11:48:17 +0000";
layers = (
{
anchors = (
{
name = bottom;
position = "{151, 0}";
},
{
name = center;
position = "{418, 195}";
},
{
name = top;
position = "{151, 390}";
},
{
name = topright;
position = "{527, 390}";
}
);
layerId = "0E913661-75E6-4305-BF89-58B721FF741E";
paths = (
{
closed = 1;
nodes = (
"496 -9 OFFCURVE",
"512 5 OFFCURVE",
"562 32 CURVE",
"558 50 LINE",
"456 50 OFFCURVE",
"456 97 OFFCURVE",
"455 225 CURVE SMOOTH",
"455 263 OFFCURVE",
"456 291 OFFCURVE",
"459 327 CURVE",
"488 328 OFFCURVE",
"527 330 OFFCURVE",
"556 327 CURVE",
"557 390 LINE",
"464 390 LINE",
"472 451 OFFCURVE",
"483 503 OFFCURVE",
"496 535 CURVE",
"474 545 LINE",
"453 518 OFFCURVE",
"397 475 OFFCURVE",
"351 465 CURVE",
"348 444 LINE",
"365 435 OFFCURVE",
"371 414 OFFCURVE",
"373 390 CURVE",
"340 389 OFFCURVE",
"225 391 OFFCURVE",
"177 395 CURVE",
"75 338 LINE",
"55 309 OFFCURVE",
"35 266 OFFCURVE",
"35 191 CURVE SMOOTH",
"35 76 OFFCURVE",
"70 -8 OFFCURVE",
"170 -8 CURVE SMOOTH",
"217 -8 OFFCURVE",
"254 9 OFFCURVE",
"288 26 CURVE",
"283 49 LINE",
"181 20 OFFCURVE",
"110 83 OFFCURVE",
"110 205 CURVE SMOOTH",
"110 249 OFFCURVE",
"122 298 OFFCURVE",
"158 331 CURVE",
"213 334 OFFCURVE",
"310 331 OFFCURVE",
"372 323 CURVE",
"367 59 LINE SMOOTH",
"367 37 OFFCURVE",
"420 -9 OFFCURVE",
"470 -9 CURVE SMOOTH"
);
}
);
width = 567;
}
);
leftMetricsKey = c;
rightMetricsKey = t;
},
{
color = 4;
glyphname = d;
lastChange = "2020-02-10 11:48:17 +0000";
layers = (
{
anchors = (
{
name = bottom;
position = "{221, 0}";
},
{
name = center;
position = "{221, 195}";
},
{
name = top;
position = "{221, 700}";
},
{
name = topright;
position = "{439, 390}";
}
);
layerId = "0E913661-75E6-4305-BF89-58B721FF741E";
paths = (
{
closed = 1;
nodes = (
"232 17 OFFCURVE",
"265 46 OFFCURVE",
"317 100 CURVE",
"322 66 OFFCURVE",
"326 36 OFFCURVE",
"330 1 CURVE",
"345 -10 LINE",
"371 3 OFFCURVE",
"401 12 OFFCURVE",
"439 35 CURVE",
"439 55 LINE",
"380 144 OFFCURVE",
"392 529 OFFCURVE",
"421 699 CURVE",
"400 711 LINE",
"358 701 OFFCURVE",
"291 691 OFFCURVE",
"240 691 CURVE",
"240 663 LINE",
"285 651 OFFCURVE",
"312 651 OFFCURVE",
"312 582 CURVE SMOOTH",
"312 388 LINE",
"281 393 OFFCURVE",
"243 399 OFFCURVE",
"235 399 CURVE SMOOTH",
"118 399 OFFCURVE",
"20 312 OFFCURVE",
"20 179 CURVE SMOOTH",
"20 46 OFFCURVE",
"104 -10 OFFCURVE",
"192 -10 CURVE"
);
},
{
closed = 1;
nodes = (
"117 84 OFFCURVE",
"71 125 OFFCURVE",
"71 210 CURVE SMOOTH",
"71 284 OFFCURVE",
"123 334 OFFCURVE",
"210 334 CURVE SMOOTH",
"255 334 OFFCURVE",
"289 318 OFFCURVE",
"313 300 CURVE",
"313 140 LINE",
"276 98 OFFCURVE",
"238 84 OFFCURVE",
"193 84 CURVE SMOOTH"
);
}
);
width = 459;
}
);
leftMetricsKey = o;
unicode = 0064;
},
{
color = 4;
glyphname = d.ss01;
lastChange = "2020-02-10 11:48:17 +0000";
layers = (
{
anchors = (
{
name = bottom;
position = "{191, -3}";
},
{
name = center;
position = "{188, 195}";
},
{
name = top;
position = "{188, 700}";
},
{
name = topright;
position = "{354, 390}";
}
);
layerId = "0E913661-75E6-4305-BF89-58B721FF741E";
paths = (
{
closed = 1;
nodes = (
"232 15 OFFCURVE",
"323 76 OFFCURVE",
"360 106 CURVE",
"380 139 OFFCURVE",
"389 278 OFFCURVE",
"372 333 CURVE",
"354 364 OFFCURVE",
"309 405 OFFCURVE",
"264 435 CURVE SMOOTH",
"199 478 OFFCURVE",
"117 534 OFFCURVE",
"117 551 CURVE SMOOTH",
"117 564 OFFCURVE",
"131 583 OFFCURVE",
"156 605 CURVE",
"139 624 LINE",
"92 588 OFFCURVE",
"20 531 OFFCURVE",
"20 522 CURVE SMOOTH",
"20 480 OFFCURVE",
"98 437 OFFCURVE",
"165 395 CURVE",
"43 298 LINE",
"29 270 OFFCURVE",
"34 170 OFFCURVE",
"52 111 CURVE SMOOTH",
"65 69 OFFCURVE",
"124 7 OFFCURVE",
"202 -8 CURVE"
);
},
{
closed = 1;
nodes = (
"162 95 OFFCURVE",
"119 163 OFFCURVE",
"119 227 CURVE SMOOTH",
"119 296 OFFCURVE",
"144 344 OFFCURVE",
"192 377 CURVE",
"201 371 OFFCURVE",
"210 364 OFFCURVE",
"218 358 CURVE SMOOTH",
"262 323 OFFCURVE",
"294 276 OFFCURVE",
"294 213 CURVE SMOOTH",
"294 146 OFFCURVE",
"266 101 OFFCURVE",
"238 70 CURVE"
);
}
);
width = 401;
}
);
leftMetricsKey = o;
rightMetricsKey = o;
},
{
color = 4;
glyphname = e;
lastChange = "2020-01-30 15:42:40 +0000";
layers = (
{
anchors = (
{
name = bottom;
position = "{155, 0}";
},
{
name = ogonek;
position = "{291, 10}";
},
{
name = top;
position = "{155, 390}";
}
);
layerId = "0E913661-75E6-4305-BF89-58B721FF741E";
paths = (
{
closed = 1;
nodes = (
"250 10 OFFCURVE",
"256 24 OFFCURVE",
"291 41 CURVE",
"283 68 LINE",
"266 63 OFFCURVE",
"254 57 OFFCURVE",
"225 57 CURVE SMOOTH",
"164 57 OFFCURVE",
"127 89 OFFCURVE",
"110 141 CURVE",
"180 190 OFFCURVE",
"232 214 OFFCURVE",
"292 254 CURVE",
"296 271 LINE",
"259 312 OFFCURVE",
"217 375 OFFCURVE",
"176 403 CURVE",
"40 331 LINE",
"30 294 OFFCURVE",
"25 226 OFFCURVE",
"25 169 CURVE SMOOTH",
"25 60 OFFCURVE",
"101 -10 OFFCURVE",
"214 -10 CURVE"
);
},
{
closed = 1;
nodes = (
"101 185 OFFCURVE",
"100 199 OFFCURVE",
"100 213 CURVE SMOOTH",
"100 268 OFFCURVE",
"109 321 OFFCURVE",
"129 342 CURVE",
"179 300 OFFCURVE",
"212 255 OFFCURVE",
"212 240 CURVE",
"183 216 OFFCURVE",
"148 199 OFFCURVE",
"103 172 CURVE"
);
}
);
width = 301;
}
);
unicode = 0065;
},
{
color = 4;
glyphname = e_macr;
lastChange = "2020-02-10 11:34:55 +0000";
layers = (
{
anchors = (
{
name = _top;
position = "{159, 390}";
},
{
name = bottom;
position = "{155, 0}";
},
{
name = ogonek;
position = "{275, 10}";
},
{
name = top;
position = "{155, 390}";
}
);
layerId = "0E913661-75E6-4305-BF89-58B721FF741E";
paths = (
{
closed = 1;
nodes = (
"254 10 OFFCURVE",
"260 24 OFFCURVE",
"295 41 CURVE",
"287 68 LINE",
"270 63 OFFCURVE",
"258 57 OFFCURVE",
"229 57 CURVE SMOOTH",
"168 57 OFFCURVE",
"131 89 OFFCURVE",
"114 141 CURVE",
"184 190 OFFCURVE",
"236 214 OFFCURVE",
"296 254 CURVE",
"300 271 LINE",
"263 312 OFFCURVE",
"221 375 OFFCURVE",
"180 403 CURVE",
"44 331 LINE",
"34 294 OFFCURVE",
"29 226 OFFCURVE",
"29 169 CURVE SMOOTH",
"29 60 OFFCURVE",
"105 -10 OFFCURVE",
"218 -10 CURVE"
);
},
{
closed = 1;
nodes = (
"105 185 OFFCURVE",
"104 199 OFFCURVE",
"104 213 CURVE SMOOTH",
"104 268 OFFCURVE",
"113 321 OFFCURVE",
"133 342 CURVE",
"183 300 OFFCURVE",
"216 255 OFFCURVE",
"216 240 CURVE",
"187 216 OFFCURVE",
"152 199 OFFCURVE",
"107 172 CURVE"
);
},
{
closed = 1;
nodes = (
"68 485 OFFCURVE",
"199 485 OFFCURVE",
"246 481 CURVE",
"283 559 LINE",
"257 563 LINE",
"233 542 OFFCURVE",
"122 541 OFFCURVE",
"68 539 CURVE",
"25 467 LINE",
"53 462 LINE"
);
}
);
width = 305;
}
);
leftMetricsKey = e;
rightMetricsKey = e;
unicode = 0113;
},
{
color = 4;
glyphname = f;
lastChange = "2020-01-30 15:42:40 +0000";
layers = (
{
anchors = (
{
name = bottom;
position = "{109, 0}";
},
{
name = top;
position = "{109, 700}";
}
);
layerId = "0E913661-75E6-4305-BF89-58B721FF741E";
paths = (
{
closed = 1;
nodes = (
"73 1 OFFCURVE",
"145 0 OFFCURVE",
"222 -6 CURVE",
"222 21 LINE",
"152 38 OFFCURVE",
"153 38 OFFCURVE",
"153 109 CURVE SMOOTH",
"153 346 LINE",
"262 346 LINE",
"262 390 LINE",
"152 390 LINE",
"152 617 LINE",
"175 617 OFFCURVE",
"232 611 OFFCURVE",
"272 608 CURVE",
"276 695 LINE",
"241 699 OFFCURVE",
"202 699 OFFCURVE",
"174 701 CURVE",
"131 662 OFFCURVE",
"108 654 OFFCURVE",
"67 618 CURVE",
"67 390 LINE",
"16 390 LINE",
"16 368 LINE",
"68 349 LINE",
"68 108 LINE SMOOTH",
"68 37 OFFCURVE",
"67 37 OFFCURVE",
"5 21 CURVE",
"5 -6 LINE"
);
}
);
width = 246;
}
);
unicode = 0066;
},
{
color = 4;
glyphname = f_l;
lastChange = "2020-01-30 15:42:40 +0000";
layers = (
{
anchors = (
{
name = bottom_1;
position = "{129, 0}";
},
{
name = bottom_2;
position = "{386, 0}";
},
{
name = caret_1;
position = "{257, 0}";
},
{
name = top_1;
position = "{129, 700}";
},
{
name = top_2;
position = "{386, 700}";
}
);
layerId = "0E913661-75E6-4305-BF89-58B721FF741E";
paths = (
{
closed = 1;
nodes = (
"73 1 OFFCURVE",
"145 0 OFFCURVE",
"222 -6 CURVE",
"222 21 LINE",
"152 38 OFFCURVE",
"153 38 OFFCURVE",
"153 109 CURVE SMOOTH",
"152 346 LINE",
"262 346 LINE",
"262 390 LINE",
"152 390 LINE",
"151 592 LINE",
"272 581 LINE",
"282 653 LINE",
"271 657 LINE",
"231 639 OFFCURVE",
"112 634 OFFCURVE",
"74 639 CURVE",
"64 631 LINE",
"68 603 OFFCURVE",
"68 503 OFFCURVE",
"68 390 CURVE",
"16 390 LINE",
"16 368 LINE",
"68 349 LINE",
"68 108 LINE SMOOTH",
"69 37 OFFCURVE",
"67 37 OFFCURVE",
"5 21 CURVE",
"5 -6 LINE"
);
},
{
closed = 1;
nodes = (
"356 1 OFFCURVE",
"432 0 OFFCURVE",
"489 -6 CURVE",
"489 19 LINE",
"439 36 OFFCURVE",
"440 36 OFFCURVE",
"440 107 CURVE SMOOTH",
"440 303 OFFCURVE",
"434 606 OFFCURVE",
"457 696 CURVE",
"437 711 LINE",
"395 678 OFFCURVE",
"344 652 OFFCURVE",
"303 636 CURVE",
"304 617 LINE",
"327 603 OFFCURVE",
"351 586 OFFCURVE",
"351 542 CURVE SMOOTH",
"352 421 LINE",
"322 402 LINE",
"323 391 LINE",
"334 385 OFFCURVE",
"345 377 OFFCURVE",
"353 365 CURVE",
"356 97 LINE SMOOTH",
"357 35 OFFCURVE",
"360 35 OFFCURVE",
"315 19 CURVE",
"315 -6 LINE"
);
}
);
width = 514;
}
);
leftMetricsKey = f;
rightMetricsKey = l;
},
{
color = 4;
glyphname = g;
lastChange = "2020-02-10 11:46:16 +0000";
layers = (
{
anchors = (
{
name = bottom;
position = "{243, -200}";
},
{
name = top;
position = "{223, 390}";
}
);
layerId = "0E913661-75E6-4305-BF89-58B721FF741E";
paths = (
{
closed = 1;
nodes = (
"312 -212 OFFCURVE",
"405 -164 OFFCURVE",
"405 -78 CURVE SMOOTH",
"405 11 OFFCURVE",
"345 28 OFFCURVE",
"253 41 CURVE SMOOTH",
"189 50 OFFCURVE",
"155 59 OFFCURVE",
"145 76 CURVE",
"154 88 OFFCURVE",
"183 113 OFFCURVE",
"218 123 CURVE SMOOTH",
"223 124 OFFCURVE",
"228 125 OFFCURVE",
"232 126 CURVE SMOOTH",
"236 126 LINE",
"235 126 LINE SMOOTH",
"302 143 OFFCURVE",
"357 191 OFFCURVE",
"357 254 CURVE SMOOTH",
"357 287 OFFCURVE",
"340 317 OFFCURVE",
"317 341 CURVE",
"385 340 LINE",
"385 394 LINE",
"299 393 OFFCURVE",
"268 393 OFFCURVE",
"213 393 CURVE SMOOTH",
"211 393 OFFCURVE",
"210 393 OFFCURVE",
"208 393 CURVE SMOOTH",
"205 393 LINE SMOOTH",
"96 388 OFFCURVE",
"18 343 OFFCURVE",
"18 245 CURVE SMOOTH",
"18 165 OFFCURVE",
"77 131 OFFCURVE",
"147 122 CURVE",
"125 106 OFFCURVE",
"99 96 OFFCURVE",
"80 85 CURVE",
"80 65 LINE",
"97 51 OFFCURVE",
"124 29 OFFCURVE",
"155 14 CURVE",
"78 -8 OFFCURVE",
"15 -27 OFFCURVE",
"15 -101 CURVE SMOOTH",
"15 -175 OFFCURVE",
"111 -212 OFFCURVE",
"216 -212 CURVE SMOOTH"
);
},
{
closed = 1;
nodes = (
"162 -139 OFFCURVE",
"109 -120 OFFCURVE",
"109 -73 CURVE SMOOTH",
"109 -40 OFFCURVE",
"133 -13 OFFCURVE",
"218 -2 CURVE",
"303 -4 OFFCURVE",
"372 -20 OFFCURVE",
"372 -67 CURVE SMOOTH",
"372 -126 OFFCURVE",
"292 -139 OFFCURVE",
"224 -139 CURVE SMOOTH"
);
},
{
closed = 1;
nodes = (
"126 153 OFFCURVE",
"81 178 OFFCURVE",
"81 226 CURVE SMOOTH",
"81 275 OFFCURVE",
"129 314 OFFCURVE",
"196 314 CURVE SMOOTH",
"259 314 OFFCURVE",
"291 281 OFFCURVE",
"291 239 CURVE SMOOTH",
"291 190 OFFCURVE",
"235 153 OFFCURVE",
"169 153 CURVE SMOOTH"
);
}
);
width = 410;
}
);
unicode = 0067;
},
{
color = 4;
glyphname = g.ss01;
lastChange = "2020-02-10 11:35:12 +0000";
layers = (
{
anchors = (
{
name = bottom;
position = "{233, -200}";
},
{
name = top;
position = "{233, 390}";
}
);
layerId = "0E913661-75E6-4305-BF89-58B721FF741E";
paths = (
{
closed = 1;
nodes = (
"341 -168 OFFCURVE",
"386 -134 OFFCURVE",
"430 -94 CURVE",
"445 -2 OFFCURVE",
"410 57 OFFCURVE",
"316 92 CURVE",
"336 114 OFFCURVE",
"346 137 OFFCURVE",
"353 157 CURVE",
"353 195 OFFCURVE",
"340 255 OFFCURVE",
"334 299 CURVE",
"356 300 OFFCURVE",
"383 300 OFFCURVE",
"402 296 CURVE",
"411 323 OFFCURVE",
"420 349 OFFCURVE",
"445 386 CURVE",
"427 394 LINE",
"387 369 OFFCURVE",
"378 369 OFFCURVE",
"308 384 CURVE",
"287 350 LINE",
"251 372 OFFCURVE",
"209 393 OFFCURVE",
"198 399 CURVE",
"164 376 OFFCURVE",
"122 337 OFFCURVE",
"63 311 CURVE",
"44 288 OFFCURVE",
"27 237 OFFCURVE",
"27 173 CURVE SMOOTH",
"27 64 OFFCURVE",
"73 14 OFFCURVE",
"149 4 CURVE",
"173 12 OFFCURVE",
"248 45 OFFCURVE",
"272 45 CURVE",
"328 26 OFFCURVE",
"361 -26 OFFCURVE",
"361 -69 CURVE SMOOTH",
"361 -82 OFFCURVE",
"351 -108 OFFCURVE",
"331 -123 CURVE",
"233 -94 OFFCURVE",
"111 -83 OFFCURVE",
"63 -76 CURVE",
"49 -76 OFFCURVE",
"20 -91 OFFCURVE",
"10 -98 CURVE",
"45 -160 LINE",
"88 -146 OFFCURVE",
"166 -147 OFFCURVE",
"292 -200 CURVE"
);
},
{
closed = 1;
nodes = (
"152 43 OFFCURVE",
"102 94 OFFCURVE",
"102 200 CURVE SMOOTH",
"102 264 OFFCURVE",
"120 297 OFFCURVE",
"142 313 CURVE",
"179 318 OFFCURVE",
"216 309 OFFCURVE",
"244 291 CURVE",
"265 267 OFFCURVE",
"284 158 OFFCURVE",
"251 70 CURVE"
);
}
);
width = 445;
}
);
},
{
color = 4;
glyphname = h;
lastChange = "2020-02-10 11:48:17 +0000";
layers = (
{
anchors = (
{
name = bottom;
position = "{236, 0}";
},
{
name = center;
position = "{236, 350}";
},
{
name = top;
position = "{236, 700}";
}
);
layerId = "0E913661-75E6-4305-BF89-58B721FF741E";
paths = (
{
closed = 1;
nodes = (
"431 24 LINE",
"414 27 OFFCURVE",
"396 29 OFFCURVE",
"369 35 CURVE",
"389 67 OFFCURVE",
"458 127 OFFCURVE",
"458 224 CURVE SMOOTH",
"458 329 OFFCURVE",
"400 402 OFFCURVE",
"274 402 CURVE SMOOTH",
"248 402 OFFCURVE",
"193 369 OFFCURVE",
"153 349 CURVE",
"153 449 OFFCURVE",
"154 550 OFFCURVE",
"156 621 CURVE SMOOTH",
"157 664 OFFCURVE",
"156 664 OFFCURVE",
"186 690 CURVE",
"172 714 LINE",
"120 686 OFFCURVE",
"61 658 OFFCURVE",
"20 636 CURVE",
"29 608 LINE",
"59 618 OFFCURVE",
"57 634 OFFCURVE",
"60 590 CURVE SMOOTH",
"70 426 OFFCURVE",
"73 261 OFFCURVE",
"71 97 CURVE SMOOTH",
"70 35 OFFCURVE",
"75 35 OFFCURVE",
"30 19 CURVE",
"30 -6 LINE",
"71 1 OFFCURVE",
"147 0 OFFCURVE",
"204 -6 CURVE",
"204 19 LINE",
"154 36 OFFCURVE",
"157 36 OFFCURVE",
"155 107 CURVE SMOOTH",
"153 164 OFFCURVE",
"153 238 OFFCURVE",
"153 314 CURVE",
"177 330 OFFCURVE",
"209 337 OFFCURVE",
"243 337 CURVE SMOOTH",
"312 337 OFFCURVE",
"398 291 OFFCURVE",
"398 185 CURVE SMOOTH",
"398 93 OFFCURVE",
"342 51 OFFCURVE",
"273 23 CURVE",
"272 -5 LINE",
"330 1 OFFCURVE",
"393 -2 OFFCURVE",
"430 -7 CURVE"
);
}
);
width = 478;
}
);
leftMetricsKey = b;
rightMetricsKey = o;
unicode = 0068;
},
{
color = 4;
glyphname = h.ss01;
lastChange = "2020-02-10 11:48:17 +0000";
layers = (
{
anchors = (
{
name = bottom;
position = "{216, 0}";
},
{
name = center;
position = "{216, 350}";
},
{
name = top;
position = "{216, 700}";
}
);
layerId = "0E913661-75E6-4305-BF89-58B721FF741E";
paths = (
{
closed = 1;
nodes = (
"221 -200 LINE",
"246 -107 OFFCURVE",
"410 85 OFFCURVE",
"413 207 CURVE SMOOTH",
"416 321 OFFCURVE",
"368 375 OFFCURVE",
"293 419 CURVE",
"264 406 OFFCURVE",
"195 367 OFFCURVE",
"151 345 CURVE",
"149 452 OFFCURVE",
"149 561 OFFCURVE",
"153 629 CURVE SMOOTH",
"155 662 OFFCURVE",
"155 672 OFFCURVE",
"175 695 CURVE",
"160 714 LINE",
"118 689 OFFCURVE",
"61 660 OFFCURVE",
"20 636 CURVE",
"29 613 LINE",
"63 626 OFFCURVE",
"63 626 OFFCURVE",
"64 588 CURVE SMOOTH",
"66 521 OFFCURVE",
"67 444 OFFCURVE",
"68 366 CURVE",
"40 349 LINE",
"41 338 LINE",
"50 333 OFFCURVE",
"61 325 OFFCURVE",
"68 315 CURVE",
"69 239 OFFCURVE",
"70 163 OFFCURVE",
"70 97 CURVE SMOOTH",
"70 35 OFFCURVE",
"74 35 OFFCURVE",
"29 19 CURVE",
"29 -6 LINE",
"70 1 OFFCURVE",
"146 0 OFFCURVE",
"203 -6 CURVE",
"203 19 LINE",
"153 36 OFFCURVE",
"154 36 OFFCURVE",
"154 107 CURVE SMOOTH",
"154 155 OFFCURVE",
"153 220 OFFCURVE",
"152 290 CURVE",
"170 317 OFFCURVE",
"196 341 OFFCURVE",
"233 341 CURVE SMOOTH",
"287 341 OFFCURVE",
"336 274 OFFCURVE",
"336 174 CURVE SMOOTH",
"336 42 OFFCURVE",
"265 -40 OFFCURVE",
"199 -133 CURVE",
"199 -201 LINE"
);
}
);
width = 433;
}
);
leftMetricsKey = h;
rightMetricsKey = h;
},
{
color = 4;
glyphname = i;
lastChange = "2020-01-30 15:42:40 +0000";
layers = (
{
anchors = (
{
name = bottom;
position = "{101, 0}";
}
);
layerId = "0E913661-75E6-4305-BF89-58B721FF741E";
paths = (
{
closed = 1;
nodes = (
"58 1 OFFCURVE",
"134 0 OFFCURVE",
"191 -6 CURVE",
"191 18 LINE",
"141 35 OFFCURVE",
"141 35 OFFCURVE",
"142 106 CURVE SMOOTH",
"144 236 OFFCURVE",
"136 297 OFFCURVE",
"153 408 CURVE",
"133 419 LINE",
"91 386 OFFCURVE",
"51 376 OFFCURVE",
"10 368 CURVE",
"11 349 LINE",
"34 335 OFFCURVE",
"58 338 OFFCURVE",
"58 294 CURVE SMOOTH",
"58 96 LINE SMOOTH",
"58 34 OFFCURVE",
"62 34 OFFCURVE",
"17 18 CURVE",
"17 -6 LINE"
);
},
{
closed = 1;
nodes = (
"183 682 LINE",
"126 703 LINE",
"118 699 LINE",
"97 546 LINE",
"132 526 LINE"
);
}
);
width = 201;
}
);
unicode = 0069;
},
{
color = 4;
glyphname = idotless;
lastChange = "2020-01-30 15:42:40 +0000";
layers = (
{
layerId = "0E913661-75E6-4305-BF89-58B721FF741E";
paths = (
{
closed = 1;
nodes = (
"58 1 OFFCURVE",
"134 0 OFFCURVE",
"191 -6 CURVE",
"191 18 LINE",
"141 35 OFFCURVE",
"141 35 OFFCURVE",
"142 106 CURVE SMOOTH",
"144 236 OFFCURVE",
"136 297 OFFCURVE",
"153 408 CURVE",
"133 419 LINE",
"91 386 OFFCURVE",
"51 376 OFFCURVE",
"10 368 CURVE",
"11 349 LINE",
"34 335 OFFCURVE",
"58 338 OFFCURVE",
"58 294 CURVE SMOOTH",
"58 96 LINE SMOOTH",
"58 34 OFFCURVE",
"62 34 OFFCURVE",
"17 18 CURVE",
"17 -6 LINE"
);
}
);
width = 201;
}
);
unicode = 0131;
},
{
color = 4;
glyphname = i_macr;
lastChange = "2020-02-10 11:35:59 +0000";
layers = (
{
anchors = (
{
name = _top;
position = "{99, 420}";
},
{
name = bottom;
position = "{110, 0}";
},
{
name = top;
position = "{100, 720}";
}
);
layerId = "0E913661-75E6-4305-BF89-58B721FF741E";
paths = (
{
closed = 1;
nodes = (
"62 1 OFFCURVE",
"138 0 OFFCURVE",
"195 -6 CURVE",
"195 18 LINE",
"145 35 OFFCURVE",
"145 35 OFFCURVE",
"146 106 CURVE SMOOTH",
"148 236 OFFCURVE",
"140 297 OFFCURVE",
"157 408 CURVE",
"137 419 LINE",
"95 386 OFFCURVE",
"55 376 OFFCURVE",
"14 368 CURVE",
"15 349 LINE",
"38 335 OFFCURVE",
"62 338 OFFCURVE",
"62 294 CURVE SMOOTH",
"62 96 LINE SMOOTH",
"62 34 OFFCURVE",
"66 34 OFFCURVE",
"21 18 CURVE",
"21 -6 LINE"
);
},
{
closed = 1;
nodes = (
"34 534 OFFCURVE",
"127 527 OFFCURVE",
"163 527 CURVE",
"203 594 LINE",
"183 599 LINE",
"154 589 OFFCURVE",
"91 592 OFFCURVE",
"49 592 CURVE",
"0 521 LINE",
"22 515 LINE"
);
}
);
width = 203;
}
);
unicode = 012B;
},
{
color = 6;
glyphname = j;
lastChange = "2020-02-10 11:36:56 +0000";
layers = (
{
layerId = "0E913661-75E6-4305-BF89-58B721FF741E";
paths = (
{
closed = 1;
nodes = (
"82 -87 OFFCURVE",
"105 -35 OFFCURVE",
"147 26 CURVE",
"149 156 OFFCURVE",
"141 297 OFFCURVE",
"158 408 CURVE",
"138 419 LINE",
"96 386 OFFCURVE",
"56 376 OFFCURVE",
"15 368 CURVE",
"16 349 LINE",
"39 335 OFFCURVE",
"63 338 OFFCURVE",
"63 294 CURVE SMOOTH",
"63 86 LINE SMOOTH",
"63 10 OFFCURVE",
"52 -55 OFFCURVE",
"22 -135 CURVE",
"52 -146 LINE"
);
},
{
closed = 1;
nodes = (
"188 682 LINE",
"131 703 LINE",
"123 699 LINE",
"102 546 LINE",
"137 526 LINE"
);
}
);
width = 203;
}
);
unicode = 006A;
},
{
color = 4;
glyphname = k;
lastChange = "2020-02-10 11:37:04 +0000";
layers = (
{
anchors = (
{
name = bottom;
position = "{170, 0}";
},
{
name = top;
position = "{170, 700}";
}
);
layerId = "0E913661-75E6-4305-BF89-58B721FF741E";
paths = (
{
closed = 1;
nodes = (
"62 1 OFFCURVE",
"133 0 OFFCURVE",
"172 -6 CURVE",
"172 19 LINE",
"140 36 OFFCURVE",
"141 36 OFFCURVE",
"141 107 CURVE SMOOTH",
"141 159 LINE",
"190 109 OFFCURVE",
"237 63 OFFCURVE",
"304 -6 CURVE",
"316 -2 LINE",
"332 86 LINE",
"330 94 LINE",
"269 119 OFFCURVE",
"211 153 OFFCURVE",
"149 198 CURVE",
"208 236 OFFCURVE",
"254 267 OFFCURVE",
"316 297 CURVE",
"316 306 LINE",
"291 391 LINE",
"283 392 LINE",
"239 331 OFFCURVE",
"186 282 OFFCURVE",
"141 235 CURVE",
"140 417 OFFCURVE",
"142 627 OFFCURVE",
"160 699 CURVE",
"146 711 LINE",
"104 688 OFFCURVE",
"51 668 OFFCURVE",
"10 652 CURVE",
"11 629 LINE",
"54 622 OFFCURVE",
"58 608 OFFCURVE",
"58 564 CURVE SMOOTH",
"62 97 LINE SMOOTH",
"63 35 OFFCURVE",
"66 35 OFFCURVE",
"21 19 CURVE",
"21 -6 LINE"
);
}
);
width = 337;
}
);
unicode = 006B;
},
{
color = 4;
glyphname = l;
lastChange = "2020-02-10 11:48:10 +0000";
layers = (
{
anchors = (
{
name = bottom;
position = "{113, 0}";
},
{
name = center;
position = "{113, 350}";
},
{
name = top;
position = "{113, 700}";
},
{
name = topright;
position = "{211, 700}";
}
);
layerId = "0E913661-75E6-4305-BF89-58B721FF741E";
paths = (
{
closed = 1;
nodes = (
"73 1 OFFCURVE",
"149 0 OFFCURVE",
"206 -6 CURVE",
"206 19 LINE",
"156 36 OFFCURVE",
"157 36 OFFCURVE",
"157 107 CURVE SMOOTH",
"157 303 OFFCURVE",
"144 659 OFFCURVE",
"174 696 CURVE",
"154 711 LINE",
"112 688 OFFCURVE",
"66 669 OFFCURVE",
"25 653 CURVE",
"27 628 LINE",
"70 631 OFFCURVE",
"73 630 OFFCURVE",
"73 579 CURVE SMOOTH",
"73 400 LINE",
"33 382 LINE",
"34 371 LINE",
"44 365 OFFCURVE",
"57 367 OFFCURVE",
"73 355 CURVE",
"73 97 LINE SMOOTH",
"73 35 OFFCURVE",
"77 35 OFFCURVE",
"32 19 CURVE",
"32 -6 LINE"
);
}
);
width = 231;
}
);
unicode = 006C;
},
{
color = 4;
glyphname = m;
lastChange = "2020-02-10 11:48:17 +0000";
layers = (
{
anchors = (
{
name = bottom;
position = "{351, 0}";
},
{
name = top;
position = "{351, 390}";
}
);
layerId = "0E913661-75E6-4305-BF89-58B721FF741E";
paths = (
{
closed = 1;
nodes = (
"63 1 OFFCURVE",
"141 0 OFFCURVE",
"198 -6 CURVE",
"198 22 LINE",
"148 39 OFFCURVE",
"149 39 OFFCURVE",
"149 110 CURVE SMOOTH",
"148 211 OFFCURVE",
"147 269 OFFCURVE",
"149 314 CURVE",
"169 328 OFFCURVE",
"196 342 OFFCURVE",
"234 342 CURVE SMOOTH",
"272 342 OFFCURVE",
"313 323 OFFCURVE",
"312 276 CURVE SMOOTH",
"308 87 LINE SMOOTH",
"307 37 OFFCURVE",
"307 38 OFFCURVE",
"266 20 CURVE",
"266 -6 LINE",
"331 1 OFFCURVE",
"367 1 OFFCURVE",
"442 -6 CURVE",
"442 20 LINE",
"401 35 OFFCURVE",
"398 38 OFFCURVE",
"396 87 CURVE SMOOTH",
"393 158 OFFCURVE",
"387 256 OFFCURVE",
"397 306 CURVE",
"417 324 OFFCURVE",
"443 342 OFFCURVE",
"480 342 CURVE SMOOTH",
"518 342 OFFCURVE",
"559 323 OFFCURVE",
"558 276 CURVE SMOOTH",
"554 87 LINE SMOOTH",
"553 37 OFFCURVE",
"553 38 OFFCURVE",
"512 20 CURVE",
"512 -6 LINE",
"577 1 OFFCURVE",
"613 1 OFFCURVE",
"688 -6 CURVE",
"688 20 LINE",
"647 35 OFFCURVE",
"644 38 OFFCURVE",
"642 87 CURVE SMOOTH",
"639 159 OFFCURVE",
"634 258 OFFCURVE",
"643 308 CURVE SMOOTH",
"647 330 OFFCURVE",
"603 399 OFFCURVE",
"520 399 CURVE SMOOTH",
"463 399 OFFCURVE",
"424 370 OFFCURVE",
"386 340 CURVE",
"369 367 OFFCURVE",
"330 399 OFFCURVE",
"274 399 CURVE SMOOTH",
"223 399 OFFCURVE",
"186 375 OFFCURVE",
"152 348 CURVE",
"154 365 OFFCURVE",
"157 380 OFFCURVE",
"161 397 CURVE",
"141 408 LINE",
"98 385 OFFCURVE",
"55 378 OFFCURVE",
"15 368 CURVE",
"16 346 LINE",
"39 332 OFFCURVE",
"63 326 OFFCURVE",
"63 272 CURVE SMOOTH",
"63 100 LINE SMOOTH",
"63 38 OFFCURVE",
"67 38 OFFCURVE",
"22 22 CURVE",
"22 -6 LINE"
);
}
);
width = 703;
}
);
leftMetricsKey = n;
rightMetricsKey = n;
unicode = 006D;
},
{
color = 4;
glyphname = n;
lastChange = "2020-02-10 11:47:03 +0000";
layers = (
{
anchors = (
{
name = bottom;
position = "{234, 0}";
},
{
name = top;
position = "{234, 390}";
}
);
layerId = "0E913661-75E6-4305-BF89-58B721FF741E";
paths = (
{
closed = 1;
nodes = (
"63 1 OFFCURVE",
"140 0 OFFCURVE",
"197 -6 CURVE",
"197 22 LINE",
"147 39 OFFCURVE",
"148 39 OFFCURVE",
"148 110 CURVE SMOOTH",
"147 205 OFFCURVE",
"146 261 OFFCURVE",
"148 305 CURVE",
"171 321 OFFCURVE",
"210 333 OFFCURVE",
"237 333 CURVE SMOOTH",
"285 333 OFFCURVE",
"323 316 OFFCURVE",
"321 249 CURVE SMOOTH",
"317 87 LINE SMOOTH",
"316 37 OFFCURVE",
"316 38 OFFCURVE",
"275 20 CURVE",
"275 -6 LINE",
"340 1 OFFCURVE",
"376 1 OFFCURVE",
"451 -6 CURVE",
"451 20 LINE",
"410 35 OFFCURVE",
"407 38 OFFCURVE",
"405 87 CURVE SMOOTH",
"402 159 OFFCURVE",
"396 276 OFFCURVE",
"404 324 CURVE SMOOTH",
"408 346 OFFCURVE",
"366 399 OFFCURVE",
"303 399 CURVE SMOOTH",
"245 399 OFFCURVE",
"212 374 OFFCURVE",
"150 340 CURVE",
"152 359 OFFCURVE",
"155 377 OFFCURVE",
"160 397 CURVE",
"140 408 LINE",
"97 385 OFFCURVE",
"55 378 OFFCURVE",
"15 368 CURVE",
"16 346 LINE",
"39 332 OFFCURVE",
"63 326 OFFCURVE",
"63 272 CURVE SMOOTH",
"63 100 LINE SMOOTH",
"63 38 OFFCURVE",
"67 38 OFFCURVE",
"22 22 CURVE",
"22 -6 LINE"
);
}
);
width = 466;
}
);
unicode = 006E;
},
{
color = 4;
glyphname = o;
lastChange = "2020-02-10 11:47:49 +0000";
layers = (
{
anchors = (
{
name = bottom;
position = "{216, 0}";
},
{
name = center;
position = "{216, 195}";
},
{
name = ogonek;
position = "{389, 10}";
},
{
name = top;
position = "{314, 390}";
},
{
name = topright;
position = "{412, 390}";
}
);
layerId = "0E913661-75E6-4305-BF89-58B721FF741E";
paths = (
{
closed = 1;
nodes = (
"324 -10 OFFCURVE",
"415 88 OFFCURVE",
"415 198 CURVE SMOOTH",
"415 333 OFFCURVE",
"318 400 OFFCURVE",
"218 400 CURVE SMOOTH",
"111 400 OFFCURVE",
"20 311 OFFCURVE",
"20 192 CURVE SMOOTH",
"20 57 OFFCURVE",
"129 -10 OFFCURVE",
"227 -10 CURVE SMOOTH"
);
},
{
closed = 1;
nodes = (
"148 26 OFFCURVE",
"109 115 OFFCURVE",
"109 208 CURVE SMOOTH",
"109 293 OFFCURVE",
"141 364 OFFCURVE",
"210 364 CURVE SMOOTH",
"287 364 OFFCURVE",
"326 295 OFFCURVE",
"326 182 CURVE SMOOTH",
"326 97 OFFCURVE",
"304 26 OFFCURVE",
"225 26 CURVE SMOOTH"
);
}
);
width = 435;
}
);
unicode = 006F;
},
{
color = 4;
glyphname = o_macr;
lastChange = "2020-02-10 11:48:17 +0000";
layers = (
{
anchors = (
{
name = _top;
position = "{227, 390}";
},
{
name = bottom;
position = "{216, 0}";
},
{
name = center;
position = "{216, 195}";
},
{
name = ogonek;
position = "{389, 10}";
},
{
name = top;
position = "{228, 690}";
},
{
name = topright;
position = "{412, 390}";
}
);
layerId = "0E913661-75E6-4305-BF89-58B721FF741E";
paths = (
{
closed = 1;
nodes = (
"324 -10 OFFCURVE",
"415 88 OFFCURVE",
"415 198 CURVE SMOOTH",
"415 333 OFFCURVE",
"318 400 OFFCURVE",
"218 400 CURVE SMOOTH",
"111 400 OFFCURVE",
"20 311 OFFCURVE",
"20 192 CURVE SMOOTH",
"20 57 OFFCURVE",
"129 -10 OFFCURVE",
"227 -10 CURVE SMOOTH"
);
},
{
closed = 1;
nodes = (
"148 26 OFFCURVE",
"109 115 OFFCURVE",
"109 208 CURVE SMOOTH",
"109 293 OFFCURVE",
"141 364 OFFCURVE",
"210 364 CURVE SMOOTH",
"287 364 OFFCURVE",
"326 295 OFFCURVE",
"326 182 CURVE SMOOTH",
"326 97 OFFCURVE",
"304 26 OFFCURVE",
"225 26 CURVE SMOOTH"
);
},
{
closed = 1;
nodes = (
"144 512 OFFCURVE",
"302 497 OFFCURVE",
"349 497 CURVE",
"358 526 OFFCURVE",
"375 555 OFFCURVE",
"402 584 CURVE",
"377 589 LINE",
"339 559 OFFCURVE",
"200 566 OFFCURVE",
"146 566 CURVE",
"100 495 LINE",
"128 489 LINE"
);
}
);
width = 435;
}
);
leftMetricsKey = o;
rightMetricsKey = o;
},
{
color = 4;
glyphname = p;
lastChange = "2020-02-10 11:48:17 +0000";
layers = (
{
anchors = (
{
name = bottom;
position = "{219, 0}";
},
{
name = top;
position = "{219, 390}";
}
);
layerId = "0E913661-75E6-4305-BF89-58B721FF741E";
paths = (
{
closed = 1;
nodes = (
"63 -203 OFFCURVE",
"138 -204 OFFCURVE",
"225 -205 CURVE",
"225 -177 LINE",
"145 -173 OFFCURVE",
"146 -173 OFFCURVE",
"147 -102 CURVE SMOOTH",
"147 -70 OFFCURVE",
"147 -29 OFFCURVE",
"146 17 CURVE",
"192 5 OFFCURVE",
"231 -5 OFFCURVE",
"241 -9 CURVE",
"308 -9 OFFCURVE",
"414 66 OFFCURVE",
"415 204 CURVE SMOOTH",
"416 326 OFFCURVE",
"363 399 OFFCURVE",
"252 401 CURVE",
"228 393 OFFCURVE",
"181 351 OFFCURVE",
"148 326 CURVE",
"149 346 OFFCURVE",
"148 386 OFFCURVE",
"149 410 CURVE",
"133 415 LINE",
"104 399 OFFCURVE",
"51 382 OFFCURVE",
"15 368 CURVE",
"16 349 LINE",
"39 339 OFFCURVE",
"63 328 OFFCURVE",
"63 284 CURVE SMOOTH",
"63 87 LINE",
"21 62 LINE",
"21 53 LINE",
"63 40 LINE",
"63 -112 LINE SMOOTH",
"63 -174 OFFCURVE",
"67 -174 OFFCURVE",
"22 -177 CURVE",
"22 -205 LINE"
);
},
{
closed = 1;
nodes = (
"211 55 OFFCURVE",
"181 67 OFFCURVE",
"146 93 CURVE",
"145 160 OFFCURVE",
"145 231 OFFCURVE",
"147 291 CURVE",
"156 298 OFFCURVE",
"186 319 OFFCURVE",
"227 319 CURVE SMOOTH",
"300 319 OFFCURVE",
"366 271 OFFCURVE",
"366 180 CURVE SMOOTH",
"366 95 OFFCURVE",
"323 55 OFFCURVE",
"253 55 CURVE SMOOTH"
);
}
);
width = 435;
}
);
rightMetricsKey = o;
unicode = 0070;
},
{
color = 4;
glyphname = q;
lastChange = "2020-02-10 11:48:17 +0000";
layers = (
{
anchors = (
{
name = bottom;
position = "{214, 0}";
},
{
name = top;
position = "{214, 390}";
}
);
layerId = "0E913661-75E6-4305-BF89-58B721FF741E";
paths = (
{
closed = 1;
nodes = (
"293 -199 OFFCURVE",
"369 -191 OFFCURVE",
"420 -187 CURVE",
"420 -162 LINE",
"365 -155 OFFCURVE",
"370 -155 OFFCURVE",
"369 -93 CURVE SMOOTH",
"365 286 LINE SMOOTH",
"365 330 OFFCURVE",
"364 358 OFFCURVE",
"371 399 CURVE",
"355 406 LINE",
"347 397 OFFCURVE",
"338 387 OFFCURVE",
"329 378 CURVE",
"291 393 OFFCURVE",
"255 399 OFFCURVE",
"222 399 CURVE SMOOTH",
"98 399 OFFCURVE",
"21 291 OFFCURVE",
"20 173 CURVE SMOOTH",
"19 52 OFFCURVE",
"93 -10 OFFCURVE",
"179 -10 CURVE",
"212 6 OFFCURVE",
"251 35 OFFCURVE",
"289 65 CURVE",
"287 4 OFFCURVE",
"285 -52 OFFCURVE",
"285 -92 CURVE SMOOTH",
"286 -163 OFFCURVE",
"286 -163 OFFCURVE",
"226 -180 CURVE",
"226 -205 LINE"
);
},
{
closed = 1;
nodes = (
"145 67 OFFCURVE",
"74 111 OFFCURVE",
"72 202 CURVE SMOOTH",
"70 289 OFFCURVE",
"127 330 OFFCURVE",
"190 330 CURVE SMOOTH",
"233 330 OFFCURVE",
"270 318 OFFCURVE",
"295 294 CURVE",
"296 235 OFFCURVE",
"294 165 OFFCURVE",
"291 99 CURVE",
"264 77 OFFCURVE",
"246 67 OFFCURVE",
"209 67 CURVE SMOOTH"
);
}
);
width = 430;
}
);
leftMetricsKey = o;
unicode = 0071;
},
{
color = 4;
glyphname = q_etfin;
lastChange = "2020-02-10 11:48:17 +0000";
layers = (
{
anchors = (
{
name = bottom;
position = "{214, 0}";
},
{
name = bottom_1;
position = "{100, 0}";
},
{
name = bottom_2;
position = "{300, 0}";
},
{
name = bottom_3;
position = "{500, 0}";
},
{
name = caret_1;
position = "{200, 0}";
},
{
name = caret_2;
position = "{400, 0}";
},
{
name = top;
position = "{214, 390}";
},
{
name = top_1;
position = "{100, 390}";
},
{
name = top_2;
position = "{300, 390}";
},
{
name = top_3;
position = "{500, 390}";
}
);
layerId = "0E913661-75E6-4305-BF89-58B721FF741E";
paths = (
{
closed = 1;
nodes = (
"293 -199 OFFCURVE",
"369 -191 OFFCURVE",
"420 -187 CURVE",
"420 -162 LINE",
"372 -156 OFFCURVE",
"370 -155 OFFCURVE",
"369 -114 CURVE",
"481 -45 OFFCURVE",
"563 6 OFFCURVE",
"563 92 CURVE SMOOTH",
"563 120 OFFCURVE",
"543 173 OFFCURVE",
"484 190 CURVE",
"525 232 OFFCURVE",
"550 261 OFFCURVE",
"550 281 CURVE SMOOTH",
"550 307 OFFCURVE",
"520 380 OFFCURVE",
"455 406 CURVE",
"365 325 LINE",
"365 349 OFFCURVE",
"366 371 OFFCURVE",
"371 399 CURVE",
"355 406 LINE",
"347 397 OFFCURVE",
"338 387 OFFCURVE",
"329 378 CURVE",
"291 393 OFFCURVE",
"255 399 OFFCURVE",
"222 399 CURVE SMOOTH",
"98 399 OFFCURVE",
"21 291 OFFCURVE",
"20 173 CURVE SMOOTH",
"19 52 OFFCURVE",
"93 -10 OFFCURVE",
"179 -10 CURVE",
"212 6 OFFCURVE",
"251 35 OFFCURVE",
"289 65 CURVE",
"287 4 OFFCURVE",
"285 -52 OFFCURVE",
"285 -92 CURVE SMOOTH",
"286 -163 OFFCURVE",
"286 -163 OFFCURVE",
"226 -180 CURVE",
"226 -205 LINE"
);
},
{
closed = 1;
nodes = (
"145 67 OFFCURVE",
"74 111 OFFCURVE",
"72 202 CURVE SMOOTH",
"70 289 OFFCURVE",
"127 330 OFFCURVE",
"190 330 CURVE SMOOTH",
"233 330 OFFCURVE",
"270 318 OFFCURVE",
"295 294 CURVE",
"296 235 OFFCURVE",
"294 165 OFFCURVE",
"291 99 CURVE",
"264 77 OFFCURVE",
"246 67 OFFCURVE",
"209 67 CURVE SMOOTH"
);
},
{
closed = 1;
nodes = (
"367 106 LINE",
"459 153 OFFCURVE",
"483 96 OFFCURVE",
"483 61 CURVE SMOOTH",
"483 15 OFFCURVE",
"445 -25 OFFCURVE",
"369 -76 CURVE"
);
},
{
closed = 1;
nodes = (
"365 280 LINE",
"386 300 OFFCURVE",
"403 306 OFFCURVE",
"427 306 CURVE SMOOTH",
"452 306 OFFCURVE",
"480 291 OFFCURVE",
"480 253 CURVE SMOOTH",
"480 207 OFFCURVE",
"429 173 OFFCURVE",
"367 135 CURVE"
);
}
);
width = 593;
}
);
leftMetricsKey = q;
},
{
color = 4;
glyphname = q_strok;
lastChange = "2020-02-10 11:48:17 +0000";
layers = (
{
anchors = (
{
name = bottom;
position = "{214, 0}";
},
{
name = bottom_1;
position = "{216, 0}";
},
{
name = bottom_2;
position = "{649, 0}";
},
{
name = caret_1;
position = "{433, 0}";
},
{
name = top;
position = "{214, 390}";
},
{
name = top_1;
position = "{216, 390}";
},
{
name = top_2;
position = "{649, 390}";
}
);
layerId = "0E913661-75E6-4305-BF89-58B721FF741E";
paths = (
{
closed = 1;
nodes = (
"293 -199 OFFCURVE",
"369 -191 OFFCURVE",
"420 -187 CURVE",
"420 -162 LINE",
"365 -155 OFFCURVE",
"370 -155 OFFCURVE",
"369 -93 CURVE SMOOTH",
"368 -27 LINE",
"490 58 OFFCURVE",
"570 134 OFFCURVE",
"570 252 CURVE SMOOTH",
"570 335 OFFCURVE",
"533 375 OFFCURVE",
"454 400 CURVE",
"365 324 LINE",
"365 349 OFFCURVE",
"366 371 OFFCURVE",
"371 399 CURVE",
"355 406 LINE",
"347 397 OFFCURVE",
"338 387 OFFCURVE",
"329 378 CURVE",
"291 393 OFFCURVE",
"255 399 OFFCURVE",
"222 399 CURVE SMOOTH",
"98 399 OFFCURVE",
"21 291 OFFCURVE",
"20 173 CURVE SMOOTH",
"19 52 OFFCURVE",
"93 -10 OFFCURVE",
"179 -10 CURVE",
"212 6 OFFCURVE",
"251 35 OFFCURVE",
"289 65 CURVE",
"288 27 OFFCURVE",
"286 -9 OFFCURVE",
"286 -40 CURVE",
"247 -65 OFFCURVE",
"203 -93 OFFCURVE",
"153 -123 CURVE",
"153 -170 LINE",
"199 -138 OFFCURVE",
"244 -109 OFFCURVE",
"285 -82 CURVE",
"285 -92 LINE SMOOTH",
"286 -163 OFFCURVE",
"286 -163 OFFCURVE",
"226 -180 CURVE",
"226 -205 LINE"
);
},
{
closed = 1;
nodes = (
"145 67 OFFCURVE",
"74 111 OFFCURVE",
"72 202 CURVE SMOOTH",
"70 289 OFFCURVE",
"127 330 OFFCURVE",
"190 330 CURVE SMOOTH",
"233 330 OFFCURVE",
"270 318 OFFCURVE",
"295 294 CURVE",
"296 235 OFFCURVE",
"294 165 OFFCURVE",
"291 99 CURVE",
"264 77 OFFCURVE",
"246 67 OFFCURVE",
"209 67 CURVE SMOOTH"
);
},
{
closed = 1;
nodes = (
"365 285 LINE",
"436 342 OFFCURVE",
"493 290 OFFCURVE",
"493 225 CURVE SMOOTH",
"493 146 OFFCURVE",
"455 87 OFFCURVE",
"368 19 CURVE"
);
}
);
width = 590;
}
);
leftMetricsKey = q;
rightMetricsKey = p;
},
{
color = 4;
glyphname = q_strok_ra;
lastChange = "2020-02-10 11:48:17 +0000";
layers = (
{
anchors = (
{
name = bottom;
position = "{214, 0}";
},
{
name = bottom_1;
position = "{100, 0}";
},
{
name = bottom_2;
position = "{300, 0}";
},
{
name = bottom_3;
position = "{500, 0}";
},
{
name = caret_1;
position = "{200, 0}";
},
{
name = caret_2;
position = "{400, 0}";
},
{
name = top;
position = "{214, 390}";
},
{
name = top_1;
position = "{100, 390}";
},
{
name = top_2;
position = "{300, 390}";
},
{
name = top_3;
position = "{500, 390}";
}
);
layerId = "0E913661-75E6-4305-BF89-58B721FF741E";
paths = (
{
closed = 1;
nodes = (
"293 -199 OFFCURVE",
"369 -191 OFFCURVE",
"420 -187 CURVE",
"420 -162 LINE",
"365 -155 OFFCURVE",
"370 -155 OFFCURVE",
"369 -93 CURVE SMOOTH",
"368 -27 LINE",
"490 58 OFFCURVE",
"570 134 OFFCURVE",
"570 252 CURVE SMOOTH",
"570 335 OFFCURVE",
"533 375 OFFCURVE",
"454 400 CURVE",
"365 324 LINE",
"365 349 OFFCURVE",
"366 371 OFFCURVE",
"371 399 CURVE",
"355 406 LINE",
"347 397 OFFCURVE",
"338 387 OFFCURVE",
"329 378 CURVE",
"291 393 OFFCURVE",
"255 399 OFFCURVE",
"222 399 CURVE SMOOTH",
"98 399 OFFCURVE",
"21 291 OFFCURVE",
"20 173 CURVE SMOOTH",
"19 52 OFFCURVE",
"93 -10 OFFCURVE",
"179 -10 CURVE",
"212 6 OFFCURVE",
"251 35 OFFCURVE",
"289 65 CURVE",
"288 27 OFFCURVE",
"286 -9 OFFCURVE",
"286 -40 CURVE",
"247 -65 OFFCURVE",
"203 -93 OFFCURVE",
"153 -123 CURVE",
"153 -170 LINE",
"199 -138 OFFCURVE",
"244 -109 OFFCURVE",
"285 -82 CURVE",
"285 -92 LINE SMOOTH",
"286 -163 OFFCURVE",
"286 -163 OFFCURVE",
"226 -180 CURVE",
"226 -205 LINE"
);
},
{
closed = 1;
nodes = (
"145 67 OFFCURVE",
"74 111 OFFCURVE",
"72 202 CURVE SMOOTH",
"70 289 OFFCURVE",
"127 330 OFFCURVE",
"190 330 CURVE SMOOTH",
"233 330 OFFCURVE",
"270 318 OFFCURVE",
"295 294 CURVE",
"296 235 OFFCURVE",
"294 165 OFFCURVE",
"291 99 CURVE",
"264 77 OFFCURVE",
"246 67 OFFCURVE",
"209 67 CURVE SMOOTH"
);
},
{
closed = 1;
nodes = (
"365 285 LINE",
"436 342 OFFCURVE",
"493 290 OFFCURVE",
"493 225 CURVE SMOOTH",
"493 146 OFFCURVE",
"455 87 OFFCURVE",
"368 19 CURVE"
);
},
{
closed = 1;
nodes = (
"511 557 LINE",
"494 572 LINE",
"437 521 OFFCURVE",
"422 537 OFFCURVE",
"363 590 CURVE",
"290 523 LINE",
"254 543 OFFCURVE",
"239 559 OFFCURVE",
"200 592 CURVE",
"120 516 LINE",
"139 498 LINE",
"178 533 OFFCURVE",
"224 495 OFFCURVE",
"260 460 CURVE",
"311 513 LINE SMOOTH",
"345 548 OFFCURVE",
"381 490 OFFCURVE",
"420 452 CURVE"
);
}
);
width = 590;
}
);
leftMetricsKey = q;
rightMetricsKey = p;
},
{
color = 4;
glyphname = q_tilde;
lastChange = "2020-02-10 11:48:17 +0000";
layers = (
{
anchors = (
{
name = bottom;
position = "{214, 0}";
},
{
name = top;
position = "{214, 390}";
}
);
layerId = "0E913661-75E6-4305-BF89-58B721FF741E";
paths = (
{
closed = 1;
nodes = (
"293 -199 OFFCURVE",
"369 -191 OFFCURVE",
"420 -187 CURVE",
"420 -162 LINE",
"365 -155 OFFCURVE",
"370 -155 OFFCURVE",
"369 -93 CURVE SMOOTH",
"365 286 LINE SMOOTH",
"365 330 OFFCURVE",
"364 358 OFFCURVE",
"371 399 CURVE",
"355 406 LINE",
"347 397 OFFCURVE",
"338 387 OFFCURVE",
"329 378 CURVE",
"291 393 OFFCURVE",
"255 399 OFFCURVE",
"222 399 CURVE SMOOTH",
"98 399 OFFCURVE",
"21 291 OFFCURVE",
"20 173 CURVE SMOOTH",
"19 52 OFFCURVE",
"93 -10 OFFCURVE",
"179 -10 CURVE",
"212 6 OFFCURVE",
"251 35 OFFCURVE",
"289 65 CURVE",
"287 4 OFFCURVE",
"285 -52 OFFCURVE",
"285 -92 CURVE SMOOTH",
"286 -163 OFFCURVE",
"286 -163 OFFCURVE",
"226 -180 CURVE",
"226 -205 LINE"
);
},
{
closed = 1;
nodes = (
"145 67 OFFCURVE",
"74 111 OFFCURVE",
"72 202 CURVE SMOOTH",
"70 289 OFFCURVE",
"127 330 OFFCURVE",
"190 330 CURVE SMOOTH",
"233 330 OFFCURVE",
"270 318 OFFCURVE",
"295 294 CURVE",
"296 235 OFFCURVE",
"294 165 OFFCURVE",
"291 99 CURVE",
"264 77 OFFCURVE",
"246 67 OFFCURVE",
"209 67 CURVE SMOOTH"
);
},
{
closed = 1;
nodes = (
"306 525 LINE",
"326 509 OFFCURVE",
"348 498 OFFCURVE",
"387 465 CURVE",
"454 573 LINE",
"433 585 LINE",
"375 509 OFFCURVE",
"361 567 OFFCURVE",
"325 602 CURVE",
"225 473 LINE",
"245 461 LINE"
);
}
);
width = 434;
}
);
leftMetricsKey = q;
},
{
color = 4;
glyphname = r;
lastChange = "2020-01-30 15:42:40 +0000";
layers = (
{
anchors = (
{
name = bottom;
position = "{146, 0}";
},
{
name = top;
position = "{146, 390}";
}
);
layerId = "0E913661-75E6-4305-BF89-58B721FF741E";
paths = (
{
closed = 1;
nodes = (
"69 1 OFFCURVE",
"154 2 OFFCURVE",
"211 -6 CURVE",
"211 18 LINE",
"151 35 OFFCURVE",
"142 35 OFFCURVE",
"142 106 CURVE SMOOTH",
"142 251 LINE",
"162 272 OFFCURVE",
"195 306 OFFCURVE",
"212 306 CURVE SMOOTH",
"234 306 OFFCURVE",
"255 293 OFFCURVE",
"266 291 CURVE",
"277 311 OFFCURVE",
"292 355 OFFCURVE",
"301 378 CURVE",
"235 401 LINE",
"224 388 OFFCURVE",
"171 327 OFFCURVE",
"140 287 CURVE",
"138 324 OFFCURVE",
"137 363 OFFCURVE",
"135 407 CURVE",
"119 415 LINE",
"77 382 OFFCURVE",
"51 376 OFFCURVE",
"10 368 CURVE",
"11 349 LINE",
"34 335 OFFCURVE",
"58 338 OFFCURVE",
"58 294 CURVE SMOOTH",
"58 96 LINE SMOOTH",
"58 34 OFFCURVE",
"62 34 OFFCURVE",
"17 18 CURVE",
"17 -6 LINE"
);
}
);
width = 291;
}
);
unicode = 0072;
},
{
color = 4;
glyphname = r_rot;
lastChange = "2020-01-30 15:42:40 +0000";
layers = (
{
layerId = "0E913661-75E6-4305-BF89-58B721FF741E";
paths = (
{
closed = 1;
nodes = (
"288 65 LINE",
"277 81 LINE",
"232 83 OFFCURVE",
"221 85 OFFCURVE",
"198 96 CURVE SMOOTH",
"118 134 LINE",
"310 299 LINE",
"308 315 LINE",
"246 338 OFFCURVE",
"189 367 OFFCURVE",
"137 402 CURVE",
"10 318 LINE",
"24 302 LINE",
"43 313 OFFCURVE",
"65 318 OFFCURVE",
"84 318 CURVE",
"122 310 OFFCURVE",
"157 284 OFFCURVE",
"194 253 CURVE",
"20 86 LINE",
"20 76 LINE",
"69 56 OFFCURVE",
"126 28 OFFCURVE",
"175 -10 CURVE"
);
}
);
width = 320;
}
);
},
{
color = 4;
glyphname = r_rot_c_ra;
lastChange = "2020-01-30 15:42:40 +0000";
layers = (
{
layerId = "0E913661-75E6-4305-BF89-58B721FF741E";
paths = (
{
closed = 1;
nodes = (
"363 58 LINE",
"387 17 OFFCURVE",
"425 -8 OFFCURVE",
"473 -8 CURVE SMOOTH",
"520 -8 OFFCURVE",
"557 25 OFFCURVE",
"591 42 CURVE",
"586 65 LINE",
"484 36 OFFCURVE",
"411 83 OFFCURVE",
"411 205 CURVE SMOOTH",
"411 242 OFFCURVE",
"415 280 OFFCURVE",
"430 323 CURVE",
"475 325 OFFCURVE",
"522 317 OFFCURVE",
"557 299 CURVE",
"563 302 LINE",
"574 390 LINE",
"549 397 OFFCURVE",
"503 403 OFFCURVE",
"430 393 CURVE",
"368 340 LINE",
"348 311 OFFCURVE",
"332 266 OFFCURVE",
"332 191 CURVE SMOOTH",
"332 151 OFFCURVE",
"338 114 OFFCURVE",
"351 83 CURVE",
"307 44 LINE",
"150 91 LINE",
"194 156 OFFCURVE",
"251 194 OFFCURVE",
"251 285 CURVE SMOOTH",
"251 351 OFFCURVE",
"204 402 OFFCURVE",
"138 402 CURVE SMOOTH",
"108 402 OFFCURVE",
"79 393 OFFCURVE",
"57 386 CURVE",
"10 297 LINE",
"27 285 LINE",
"52 303 OFFCURVE",
"79 328 OFFCURVE",
"118 328 CURVE SMOOTH",
"153 328 OFFCURVE",
"195 304 OFFCURVE",
"195 248 CURVE SMOOTH",
"195 174 OFFCURVE",
"105 88 OFFCURVE",
"38 18 CURVE",
"63 0 LINE",
"75 8 OFFCURVE",
"103 25 OFFCURVE",
"115 25 CURVE SMOOTH",
"173 25 OFFCURVE",
"213 -3 OFFCURVE",
"290 -14 CURVE"
);
},
{
closed = 1;
nodes = (
"450 503 OFFCURVE",
"486 533 OFFCURVE",
"536 584 CURVE",
"518 642 LINE",
"512 642 LINE",
"494 601 OFFCURVE",
"457 538 OFFCURVE",
"449 537 CURVE",
"413 545 OFFCURVE",
"382 581 OFFCURVE",
"350 600 CURVE",
"284 541 LINE",
"247 550 OFFCURVE",
"230 578 OFFCURVE",
"190 601 CURVE",
"100 507 LINE",
"111 469 LINE",
"119 471 LINE",
"137 502 OFFCURVE",
"156 530 OFFCURVE",
"167 529 CURVE SMOOTH",
"193 526 OFFCURVE",
"225 494 OFFCURVE",
"250 470 CURVE",
"306 523 LINE",
"327 534 OFFCURVE",
"381 500 OFFCURVE",
"420 462 CURVE"
);
}
);
width = 591;
}
);
leftMetricsKey = r;
rightMetricsKey = c;
},
{
color = 4;
glyphname = s;
lastChange = "2020-01-30 15:42:40 +0000";
layers = (
{
anchors = (
{
name = bottom;
position = "{178, 0}";
},
{
name = top;
position = "{178, 390}";
}
);
layerId = "0E913661-75E6-4305-BF89-58B721FF741E";
paths = (
{
closed = 1;
nodes = (
"47 -4 OFFCURVE",
"58 14 OFFCURVE",
"76 14 CURVE SMOOTH",
"106 14 OFFCURVE",
"141 -8 OFFCURVE",
"215 -8 CURVE SMOOTH",
"278 -8 OFFCURVE",
"336 38 OFFCURVE",
"336 111 CURVE SMOOTH",
"336 185 OFFCURVE",
"300 223 OFFCURVE",
"197 236 CURVE SMOOTH",
"111 247 OFFCURVE",
"80 255 OFFCURVE",
"80 298 CURVE SMOOTH",
"80 334 OFFCURVE",
"111 360 OFFCURVE",
"160 360 CURVE SMOOTH",
"217 360 OFFCURVE",
"255 334 OFFCURVE",
"301 245 CURVE",
"319 252 LINE",
"304 303 OFFCURVE",
"302 354 OFFCURVE",
"334 409 CURVE",
"317 420 LINE",
"297 405 OFFCURVE",
"281 388 OFFCURVE",
"252 388 CURVE SMOOTH",
"235 388 OFFCURVE",
"206 401 OFFCURVE",
"172 401 CURVE SMOOTH",
"78 401 OFFCURVE",
"31 340 OFFCURVE",
"31 275 CURVE SMOOTH",
"31 209 OFFCURVE",
"63 167 OFFCURVE",
"152 160 CURVE SMOOTH",
"251 152 OFFCURVE",
"277 124 OFFCURVE",
"277 88 CURVE SMOOTH",
"277 50 OFFCURVE",
"244 26 OFFCURVE",
"205 26 CURVE SMOOTH",
"135 26 OFFCURVE",
"88 64 OFFCURVE",
"53 140 CURVE",
"33 137 LINE",
"39 105 OFFCURVE",
"34 33 OFFCURVE",
"20 -7 CURVE",
"40 -13 LINE"
);
}
);
width = 356;
}
);
unicode = 0073;
},
{
color = 4;
glyphname = longs;
lastChange = "2020-02-10 11:38:41 +0000";
layers = (
{
anchors = (
{
name = bottom;
position = "{135, 0}";
}
);
layerId = "0E913661-75E6-4305-BF89-58B721FF741E";
paths = (
{
closed = 1;
nodes = (
"73 1 OFFCURVE",
"145 0 OFFCURVE",
"202 -6 CURVE",
"202 21 LINE",
"152 38 OFFCURVE",
"153 38 OFFCURVE",
"153 109 CURVE SMOOTH",
"152 627 LINE",
"175 627 OFFCURVE",
"207 619 OFFCURVE",
"247 598 CURVE",
"307 660 LINE",
"307 670 LINE",
"282 683 OFFCURVE",
"228 695 OFFCURVE",
"190 711 CURVE",
"147 672 OFFCURVE",
"108 634 OFFCURVE",
"67 598 CURVE",
"67 407 LINE",
"36 384 LINE",
"36 371 LINE",
"68 351 LINE",
"68 108 LINE SMOOTH",
"68 37 OFFCURVE",
"67 37 OFFCURVE",
"25 21 CURVE",
"25 -6 LINE"
);
}
);
width = 267;
}
);
unicode = 017F;
},
{
color = 4;
glyphname = longs_i;
lastChange = "2020-01-30 15:42:40 +0000";
layers = (
{
anchors = (
{
name = bottom_1;
position = "{122, 0}";
},
{
name = bottom_2;
position = "{347, 0}";
},
{
name = caret_1;
position = "{234, 0}";
},
{
name = top_1;
position = "{122, 390}";
},
{
name = top_2;
position = "{347, 390}";
}
);
layerId = "0E913661-75E6-4305-BF89-58B721FF741E";
paths = (
{
closed = 1;
nodes = (
"82 1 OFFCURVE",
"154 0 OFFCURVE",
"211 -6 CURVE",
"211 21 LINE",
"161 38 OFFCURVE",
"162 38 OFFCURVE",
"162 109 CURVE SMOOTH",
"161 617 LINE",
"198 632 OFFCURVE",
"254 629 OFFCURVE",
"294 596 CURVE",
"304 598 LINE",
"326 677 LINE",
"301 700 OFFCURVE",
"247 711 OFFCURVE",
"199 711 CURVE",
"156 672 OFFCURVE",
"117 634 OFFCURVE",
"76 598 CURVE",
"76 388 LINE",
"25 369 LINE",
"25 347 LINE",
"77 347 LINE",
"77 108 LINE SMOOTH",
"77 37 OFFCURVE",
"76 37 OFFCURVE",
"34 21 CURVE",
"34 -6 LINE"
);
},
{
closed = 1;
nodes = (
"316 1 OFFCURVE",
"392 0 OFFCURVE",
"441 -6 CURVE",
"441 18 LINE",
"399 35 OFFCURVE",
"399 35 OFFCURVE",
"400 106 CURVE SMOOTH",
"402 236 OFFCURVE",
"394 297 OFFCURVE",
"411 408 CURVE",
"391 419 LINE",
"349 386 OFFCURVE",
"309 376 OFFCURVE",
"268 368 CURVE",
"269 349 LINE",
"292 335 OFFCURVE",
"316 338 OFFCURVE",
"316 294 CURVE SMOOTH",
"316 96 LINE SMOOTH",
"316 34 OFFCURVE",
"320 34 OFFCURVE",
"275 18 CURVE",
"275 -6 LINE"
);
}
);
width = 451;
}
);
leftMetricsKey = longs;
rightMetricsKey = i;
},
{
color = 4;
glyphname = longs_t;
lastChange = "2020-02-10 11:48:17 +0000";
layers = (
{
anchors = (
{
name = bottom;
position = "{135, 0}";
},
{
name = caret_1;
position = "{264.5, 0}";
},
{
name = center;
position = "{341, 195}";
},
{
name = top;
position = "{341, 390}";
},
{
name = topright;
position = "{450, 390}";
}
);
layerId = "0E913661-75E6-4305-BF89-58B721FF741E";
paths = (
{
closed = 1;
nodes = (
"73 1 OFFCURVE",
"145 0 OFFCURVE",
"202 -6 CURVE",
"202 21 LINE",
"152 38 OFFCURVE",
"153 38 OFFCURVE",
"153 109 CURVE SMOOTH",
"152 627 LINE",
"175 627 OFFCURVE",
"207 619 OFFCURVE",
"247 598 CURVE",
"307 660 LINE",
"307 670 LINE",
"282 683 OFFCURVE",
"228 695 OFFCURVE",
"190 711 CURVE",
"147 672 OFFCURVE",
"108 634 OFFCURVE",
"67 598 CURVE",
"67 407 LINE",
"36 384 LINE",
"36 371 LINE",
"68 351 LINE",
"68 108 LINE SMOOTH",
"68 37 OFFCURVE",
"67 37 OFFCURVE",
"25 21 CURVE",
"25 -6 LINE"
);
},
{
closed = 1;
nodes = (
"389 -1 OFFCURVE",
"426 20 OFFCURVE",
"446 32 CURVE",
"442 56 LINE",
"360 56 OFFCURVE",
"359 97 OFFCURVE",
"358 225 CURVE SMOOTH",
"358 265 OFFCURVE",
"358 302 OFFCURVE",
"359 336 CURVE",
"449 336 LINE",
"450 390 LINE",
"361 390 LINE",
"364 442 OFFCURVE",
"370 488 OFFCURVE",
"379 535 CURVE",
"350 540 LINE",
"335 481 OFFCURVE",
"303 467 OFFCURVE",
"267 465 CURVE",
"264 444 LINE",
"273 437 OFFCURVE",
"278 415 OFFCURVE",
"279 390 CURVE",
"234 390 LINE",
"235 370 LINE",
"257 359 OFFCURVE",
"271 347 OFFCURVE",
"277 336 CURVE",
"278 336 LINE",
"273 59 LINE",
"284 27 OFFCURVE",
"313 1 OFFCURVE",
"363 -9 CURVE"
);
}
);
width = 455;
}
);
leftMetricsKey = longs;
rightMetricsKey = t;
},
{
color = 4;
glyphname = t;
lastChange = "2020-02-10 11:39:29 +0000";
layers = (
{
anchors = (
{
name = bottom;
position = "{117, 0}";
},
{
name = center;
position = "{117, 195}";
},
{
name = top;
position = "{117, 390}";
},
{
name = topright;
position = "{226, 390}";
}
);
layerId = "0E913661-75E6-4305-BF89-58B721FF741E";
paths = (
{
closed = 1;
nodes = (
"165 -1 OFFCURVE",
"202 20 OFFCURVE",
"222 32 CURVE",
"218 56 LINE",
"136 56 OFFCURVE",
"135 97 OFFCURVE",
"134 225 CURVE SMOOTH",
"134 265 OFFCURVE",
"134 302 OFFCURVE",
"135 336 CURVE",
"225 336 LINE",
"226 390 LINE",
"137 390 LINE",
"140 442 OFFCURVE",
"146 488 OFFCURVE",
"155 535 CURVE",
"126 540 LINE",
"111 481 OFFCURVE",
"79 467 OFFCURVE",
"43 465 CURVE",
"40 444 LINE",
"49 437 OFFCURVE",
"54 415 OFFCURVE",
"55 390 CURVE",
"10 390 LINE",
"11 370 LINE",
"33 359 OFFCURVE",
"47 347 OFFCURVE",
"53 336 CURVE",
"54 336 LINE",
"49 59 LINE",
"60 27 OFFCURVE",
"89 1 OFFCURVE",
"139 -9 CURVE"
);
}
);
width = 231;
}
);
unicode = 0074;
},
{
color = 4;
glyphname = u;
lastChange = "2020-01-30 15:42:40 +0000";
layers = (
{
anchors = (
{
name = ogonek;
position = "{440, 10}";
},
{
name = top;
position = "{229, 390}";
},
{
name = topright;
position = "{473, 390}";
}
);
layerId = "0E913661-75E6-4305-BF89-58B721FF741E";
paths = (
{
closed = 1;
nodes = (
"347 4 OFFCURVE",
"380 14 OFFCURVE",
"420 24 CURVE",
"419 46 LINE",
"396 60 OFFCURVE",
"373 66 OFFCURVE",
"372 120 CURVE SMOOTH",
"371 212 OFFCURVE",
"373 305 OFFCURVE",
"380 397 CURVE",
"335 393 OFFCURVE",
"296 392 OFFCURVE",
"239 398 CURVE",
"239 370 LINE",
"289 353 OFFCURVE",
"288 353 OFFCURVE",
"288 282 CURVE SMOOTH",
"288 189 OFFCURVE",
"290 133 OFFCURVE",
"288 89 CURVE",
"264 76 OFFCURVE",
"232 66 OFFCURVE",
"209 66 CURVE SMOOTH",
"161 66 OFFCURVE",
"125 86 OFFCURVE",
"125 153 CURVE SMOOTH",
"126 305 LINE SMOOTH",
"126 355 OFFCURVE",
"127 354 OFFCURVE",
"145 372 CURVE",
"145 398 LINE",
"112 394 OFFCURVE",
"61 391 OFFCURVE",
"10 398 CURVE",
"10 372 LINE",
"37 357 OFFCURVE",
"39 354 OFFCURVE",
"41 305 CURVE SMOOTH",
"44 233 OFFCURVE",
"42 118 OFFCURVE",
"42 70 CURVE",
"53 39 OFFCURVE",
"122 -8 OFFCURVE",
"175 -8 CURVE",
"218 21 OFFCURVE",
"246 37 OFFCURVE",
"288 53 CURVE",
"290 36 OFFCURVE",
"293 18 OFFCURVE",
"295 -1 CURVE",
"308 -11 LINE"
);
}
);
width = 430;
}
);
unicode = 0075;
},
{
color = 4;
glyphname = u_macr;
lastChange = "2020-02-10 11:39:40 +0000";
layers = (
{
anchors = (
{
name = _top;
position = "{202, 390}";
},
{
name = bottom;
position = "{215, 0}";
},
{
name = ogonek;
position = "{387, 10}";
},
{
name = top;
position = "{215, 390}";
},
{
name = topright;
position = "{410, 390}";
}
);
layerId = "0E913661-75E6-4305-BF89-58B721FF741E";
paths = (
{
closed = 1;
nodes = (
"347 4 OFFCURVE",
"380 14 OFFCURVE",
"420 24 CURVE",
"419 46 LINE",
"396 60 OFFCURVE",
"373 66 OFFCURVE",
"372 120 CURVE SMOOTH",
"371 212 OFFCURVE",
"373 305 OFFCURVE",
"380 397 CURVE",
"335 393 OFFCURVE",
"296 392 OFFCURVE",
"239 398 CURVE",
"239 370 LINE",
"289 353 OFFCURVE",
"288 353 OFFCURVE",
"288 282 CURVE SMOOTH",
"288 189 OFFCURVE",
"290 133 OFFCURVE",
"288 89 CURVE",
"264 76 OFFCURVE",
"232 66 OFFCURVE",
"209 66 CURVE SMOOTH",
"161 66 OFFCURVE",
"125 86 OFFCURVE",
"125 153 CURVE SMOOTH",
"126 305 LINE SMOOTH",
"126 355 OFFCURVE",
"127 354 OFFCURVE",
"145 372 CURVE",
"145 398 LINE",
"112 394 OFFCURVE",
"61 391 OFFCURVE",
"10 398 CURVE",
"10 372 LINE",
"37 357 OFFCURVE",
"39 354 OFFCURVE",
"41 305 CURVE SMOOTH",
"44 233 OFFCURVE",
"42 118 OFFCURVE",
"42 70 CURVE",
"53 39 OFFCURVE",
"122 -8 OFFCURVE",
"175 -8 CURVE",
"218 21 OFFCURVE",
"246 37 OFFCURVE",
"288 53 CURVE",
"290 36 OFFCURVE",
"293 18 OFFCURVE",
"295 -1 CURVE",
"308 -11 LINE"
);
},
{
closed = 1;
nodes = (
"119 508 OFFCURVE",
"269 497 OFFCURVE",
"316 497 CURVE",
"376 572 LINE",
"351 577 LINE",
"313 555 OFFCURVE",
"174 559 OFFCURVE",
"120 559 CURVE",
"75 491 LINE",
"103 485 LINE"
);
}
);
width = 430;
}
);
leftMetricsKey = u;
rightMetricsKey = u;
unicode = 016B;
},
{
color = 4;
glyphname = v;
lastChange = "2020-01-30 15:42:40 +0000";
layers = (
{
anchors = (
{
name = bottom;
position = "{219, 0}";
},
{
name = top;
position = "{219, 390}";
}
);
layerId = "0E913661-75E6-4305-BF89-58B721FF741E";
paths = (
{
closed = 1;
nodes = (
"227 -10 LINE",
"235 30 OFFCURVE",
"413 364 OFFCURVE",
"433 375 CURVE",
"433 400 LINE",
"374 397 OFFCURVE",
"320 397 OFFCURVE",
"281 400 CURVE",
"281 376 LINE",
"328 351 OFFCURVE",
"345 331 OFFCURVE",
"323 279 CURVE SMOOTH",
"298 220 OFFCURVE",
"271 161 OFFCURVE",
"239 105 CURVE",
"152 302 LINE SMOOTH",
"134 344 OFFCURVE",
"141 358 OFFCURVE",
"185 375 CURVE",
"185 399 LINE",
"128 397 OFFCURVE",
"72 396 OFFCURVE",
"5 399 CURVE",
"5 374 LINE",
"34 350 OFFCURVE",
"176 54 OFFCURVE",
"203 -10 CURVE"
);
}
);
width = 438;
}
);
unicode = 0076;
},
{
color = 6;
glyphname = w;
lastChange = "2020-01-30 15:42:40 +0000";
layers = (
{
anchors = (
{
name = bottom;
position = "{316, 0}";
},
{
name = top;
position = "{316, 390}";
}
);
layerId = "0E913661-75E6-4305-BF89-58B721FF741E";
paths = (
{
closed = 1;
nodes = (
"216 -10 LINE",
"220 10 OFFCURVE",
"265 105 OFFCURVE",
"311 195 CURVE",
"341 148 OFFCURVE",
"386 43 OFFCURVE",
"408 -10 CURVE",
"430 -10 LINE",
"438 30 OFFCURVE",
"607 364 OFFCURVE",
"626 375 CURVE",
"626 400 LINE",
"570 397 OFFCURVE",
"514 397 OFFCURVE",
"477 400 CURVE",
"477 376 LINE",
"521 351 OFFCURVE",
"540 331 OFFCURVE",
"518 279 CURVE SMOOTH",
"493 219 OFFCURVE",
"470 158 OFFCURVE",
"439 100 CURVE",
"355 280 LINE",
"383 332 OFFCURVE",
"406 371 OFFCURVE",
"412 375 CURVE",
"412 400 LINE",
"356 397 OFFCURVE",
"300 397 OFFCURVE",
"263 400 CURVE",
"263 376 LINE",
"308 351 OFFCURVE",
"325 331 OFFCURVE",
"304 279 CURVE SMOOTH",
"279 219 OFFCURVE",
"256 160 OFFCURVE",
"226 103 CURVE",
"140 302 LINE SMOOTH",
"122 344 OFFCURVE",
"130 358 OFFCURVE",
"172 375 CURVE",
"172 399 LINE",
"117 397 OFFCURVE",
"69 396 OFFCURVE",
"5 399 CURVE",
"5 374 LINE",
"33 350 OFFCURVE",
"167 54 OFFCURVE",
"193 -10 CURVE"
);
}
);
width = 631;
}
);
unicode = 0077;
},
{
color = 4;
glyphname = x;
lastChange = "2020-02-10 11:39:48 +0000";
layers = (
{
anchors = (
{
name = bottom;
position = "{198, 0}";
},
{
name = top;
position = "{198, 390}";
}
);
layerId = "0E913661-75E6-4305-BF89-58B721FF741E";
paths = (
{
closed = 1;
nodes = (
"274 -1 OFFCURVE",
"331 -2 OFFCURVE",
"391 -5 CURVE",
"391 19 LINE",
"336 80 OFFCURVE",
"301 125 OFFCURVE",
"240 215 CURVE SMOOTH",
"237 220 LINE",
"293 268 OFFCURVE",
"353 325 OFFCURVE",
"386 376 CURVE",
"386 400 LINE",
"340 398 OFFCURVE",
"296 398 OFFCURVE",
"252 400 CURVE",
"252 376 LINE",
"325 329 OFFCURVE",
"272 290 OFFCURVE",
"218 248 CURVE",
"160 334 OFFCURVE",
"151 361 OFFCURVE",
"178 376 CURVE",
"178 400 LINE",
"121 397 OFFCURVE",
"72 396 OFFCURVE",
"11 400 CURVE",
"12 372 LINE",
"52 360 OFFCURVE",
"107 273 OFFCURVE",
"150 209 CURVE",
"78 160 OFFCURVE",
"9 84 OFFCURVE",
"5 -2 CURVE",
"45 0 OFFCURVE",
"96 1 OFFCURVE",
"146 -2 CURVE",
"146 23 LINE",
"66 49 OFFCURVE",
"92 131 OFFCURVE",
"169 181 CURVE",
"249 64 OFFCURVE",
"263 51 OFFCURVE",
"220 19 CURVE",
"220 -5 LINE"
);
}
);
width = 396;
}
);
unicode = 0078;
},
{
color = 4;
glyphname = y;
lastChange = "2020-02-10 11:41:15 +0000";
layers = (
{
anchors = (
{
name = bottom;
position = "{184, 0}";
},
{
name = top;
position = "{184, 390}";
}
);
layerId = "0E913661-75E6-4305-BF89-58B721FF741E";
paths = (
{
closed = 1;
nodes = (
"114 -199 LINE",
"118 -117 OFFCURVE",
"185 -17 OFFCURVE",
"235 77 CURVE SMOOTH",
"310 219 OFFCURVE",
"351 308 OFFCURVE",
"393 375 CURVE",
"393 400 LINE",
"334 397 OFFCURVE",
"280 397 OFFCURVE",
"241 400 CURVE",
"241 376 LINE",
"288 351 OFFCURVE",
"305 331 OFFCURVE",
"288 279 CURVE SMOOTH",
"274 235 OFFCURVE",
"241 165 OFFCURVE",
"205 97 CURVE",
"132 302 LINE SMOOTH",
"116 346 OFFCURVE",
"121 358 OFFCURVE",
"165 375 CURVE",
"165 399 LINE",
"108 397 OFFCURVE",
"62 396 OFFCURVE",
"-5 399 CURVE",
"-5 374 LINE",
"20 352 OFFCURVE",
"119 118 OFFCURVE",
"161 20 CURVE",
"132 -26 OFFCURVE",
"105 -64 OFFCURVE",
"84 -80 CURVE",
"84 -199 LINE"
);
}
);
width = 388;
}
);
unicode = 0079;
},
{
color = 4;
glyphname = z;
lastChange = "2020-02-10 11:40:21 +0000";
layers = (
{
anchors = (
{
name = bottom;
position = "{184, 0}";
},
{
name = top;
position = "{184, 390}";
}
);
layerId = "0E913661-75E6-4305-BF89-58B721FF741E";
paths = (
{
closed = 1;
nodes = (
"152 4 OFFCURVE",
"229 0 OFFCURVE",
"339 0 CURVE",
"341 117 LINE",
"316 117 LINE",
"283 41 OFFCURVE",
"249 45 OFFCURVE",
"212 43 CURVE SMOOTH",
"143 40 LINE",
"200 152 OFFCURVE",
"263 280 OFFCURVE",
"320 372 CURVE",
"315 390 LINE",
"241 391 OFFCURVE",
"127 387 OFFCURVE",
"15 390 CURVE",
"15 279 LINE",
"42 279 LINE",
"57 325 OFFCURVE",
"72 348 OFFCURVE",
"113 350 CURVE SMOOTH",
"215 355 LINE",
"33 17 LINE",
"42 -3 LINE"
);
}
);
width = 356;
}
);
unicode = 007A;
},
{
color = 10;
glyphname = etfin;
lastChange = "2020-02-10 11:41:31 +0000";
layers = (
{
anchors = (
{
name = bottom;
position = "{257, -5}";
},
{
name = top;
position = "{257, 385}";
}
);
layerId = "0E913661-75E6-4305-BF89-58B721FF741E";
paths = (
{
closed = 1;
nodes = (
"65 -200 LINE",
"56 -195 OFFCURVE",
"48 -183 OFFCURVE",
"48 -169 CURVE SMOOTH",
"48 -154 OFFCURVE",
"56 -144 OFFCURVE",
"86 -129 CURVE SMOOTH",
"187 -79 OFFCURVE",
"296 -27 OFFCURVE",
"296 58 CURVE SMOOTH",
"296 112 OFFCURVE",
"245 166 OFFCURVE",
"158 183 CURVE",
"211 240 OFFCURVE",
"252 265 OFFCURVE",
"302 322 CURVE",
"292 344 LINE",
"227 348 OFFCURVE",
"162 387 OFFCURVE",
"119 403 CURVE",
"5 320 LINE",
"19 303 LINE",
"71 330 OFFCURVE",
"125 300 OFFCURVE",
"197 280 CURVE",
"154 212 OFFCURVE",
"78 168 OFFCURVE",
"11 116 CURVE",
"26 90 LINE",
"130 150 OFFCURVE",
"217 89 OFFCURVE",
"217 31 CURVE SMOOTH",
"217 -17 OFFCURVE",
"179 -58 OFFCURVE",
"56 -116 CURVE SMOOTH",
"35 -126 OFFCURVE",
"15 -147 OFFCURVE",
"15 -169 CURVE SMOOTH",
"15 -195 OFFCURVE",
"39 -208 OFFCURVE",
"61 -208 CURVE"
);
}
);
width = 327;
}
);
},
{
color = 10;
glyphname = con;
lastChange = "2020-02-10 11:48:17 +0000";
layers = (
{
layerId = "0E913661-75E6-4305-BF89-58B721FF741E";
paths = (
{
closed = 1;
nodes = (
"274 -8 OFFCURVE",
"351 71 OFFCURVE",
"351 186 CURVE SMOOTH",
"351 321 OFFCURVE",
"243 403 OFFCURVE",
"161 403 CURVE SMOOTH",
"109 403 OFFCURVE",
"47 362 OFFCURVE",
"5 321 CURVE",
"74 257 LINE",
"88 257 LINE",
"98 293 OFFCURVE",
"118 356 OFFCURVE",
"159 356 CURVE SMOOTH",
"232 356 OFFCURVE",
"267 256 OFFCURVE",
"267 194 CURVE SMOOTH",
"267 102 OFFCURVE",
"225 39 OFFCURVE",
"183 39 CURVE SMOOTH",
"132 39 OFFCURVE",
"117 65 OFFCURVE",
"86 102 CURVE",
"24 69 LINE",
"67 16 OFFCURVE",
"116 -8 OFFCURVE",
"180 -8 CURVE SMOOTH"
);
}
);
width = 371;
}
);
rightMetricsKey = o;
unicode = A76F;
},
{
color = 10;
glyphname = section;
lastChange = "2020-01-30 15:42:40 +0000";
layers = (
{
layerId = "0E913661-75E6-4305-BF89-58B721FF741E";
paths = (
{
closed = 1;
nodes = (
"334 -77 OFFCURVE",
"425 32 OFFCURVE",
"425 92 CURVE SMOOTH",
"425 197 OFFCURVE",
"197 415 OFFCURVE",
"225 486 CURVE",
"322 451 LINE",
"344 484 OFFCURVE",
"367 518 OFFCURVE",
"384 539 CURVE",
"370 551 LINE",
"323 518 OFFCURVE",
"301 531 OFFCURVE",
"233 552 CURVE",
"158 517 OFFCURVE",
"40 442 OFFCURVE",
"40 308 CURVE SMOOTH",
"40 186 OFFCURVE",
"202 83 OFFCURVE",
"202 -38 CURVE SMOOTH",
"202 -86 OFFCURVE",
"167 -128 OFFCURVE",
"98 -171 CURVE",
"114 -196 LINE"
);
},
{
closed = 1;
nodes = (
"287 -43 OFFCURVE",
"288 -32 OFFCURVE",
"288 -19 CURVE SMOOTH",
"288 106 OFFCURVE",
"114 245 OFFCURVE",
"114 377 CURVE SMOOTH",
"114 411 OFFCURVE",
"121 427 OFFCURVE",
"139 454 CURVE",
"150 336 OFFCURVE",
"334 205 OFFCURVE",
"334 84 CURVE SMOOTH",
"334 30 OFFCURVE",
"317 -16 OFFCURVE",
"284 -52 CURVE"
);
}
);
width = 465;
}
);
unicode = 00A7;
},
{
color = 10;
glyphname = parenleft;
lastChange = "2020-02-10 11:42:44 +0000";
layers = (
{
layerId = "0E913661-75E6-4305-BF89-58B721FF741E";
paths = (
{
closed = 1;
nodes = (
"253 -46 LINE",
"146 54 OFFCURVE",
"84 155 OFFCURVE",
"84 289 CURVE SMOOTH",
"84 420 OFFCURVE",
"152 525 OFFCURVE",
"253 618 CURVE",
"235 634 LINE",
"111 546 OFFCURVE",
"40 422 OFFCURVE",
"40 283 CURVE SMOOTH",
"40 144 OFFCURVE",
"110 27 OFFCURVE",
"237 -63 CURVE"
);
}
);
width = 293;
}
);
unicode = 0028;
},
{
color = 10;
glyphname = parenright;
lastChange = "2020-01-30 15:42:40 +0000";
layers = (
{
layerId = "0E913661-75E6-4305-BF89-58B721FF741E";
paths = (
{
closed = 1;
nodes = (
"183 27 OFFCURVE",
"253 144 OFFCURVE",
"253 283 CURVE SMOOTH",
"253 422 OFFCURVE",
"182 546 OFFCURVE",
"58 634 CURVE",
"40 618 LINE",
"141 525 OFFCURVE",
"209 420 OFFCURVE",
"209 289 CURVE SMOOTH",
"209 155 OFFCURVE",
"147 54 OFFCURVE",
"40 -46 CURVE",
"56 -63 LINE"
);
}
);
width = 293;
}
);
unicode = 0029;
},
{
color = 10;
glyphname = period;
lastChange = "2020-02-10 11:42:52 +0000";
layers = (
{
layerId = "0E913661-75E6-4305-BF89-58B721FF741E";
paths = (
{
closed = 1;
nodes = (
"102 -19 LINE",
"111 23 OFFCURVE",
"129 42 OFFCURVE",
"171 52 CURVE",
"171 69 LINE",
"129 80 OFFCURVE",
"112 98 OFFCURVE",
"102 140 CURVE",
"85 140 LINE",
"75 98 OFFCURVE",
"57 77 OFFCURVE",
"15 67 CURVE",
"15 52 LINE",
"58 42 OFFCURVE",
"75 23 OFFCURVE",
"85 -19 CURVE"
);
}
);
width = 186;
}
);
unicode = 002E;
},
{
color = 10;
glyphname = semicolon;
lastChange = "2020-02-10 11:43:00 +0000";
layers = (
{
layerId = "0E913661-75E6-4305-BF89-58B721FF741E";
paths = (
{
closed = 1;
nodes = (
"196 533 LINE",
"190 598 LINE",
"179 598 LINE",
"140 448 OFFCURVE",
"104 321 OFFCURVE",
"65 211 CURVE",
"66 204 LINE",
"126 184 LINE"
);
},
{
closed = 1;
nodes = (
"92 -19 LINE",
"101 23 OFFCURVE",
"119 42 OFFCURVE",
"161 52 CURVE",
"161 69 LINE",
"119 80 OFFCURVE",
"102 98 OFFCURVE",
"92 140 CURVE",
"75 140 LINE",
"65 98 OFFCURVE",
"47 77 OFFCURVE",
"5 67 CURVE",
"5 52 LINE",
"48 42 OFFCURVE",
"65 23 OFFCURVE",
"75 -19 CURVE"
);
}
);
width = 191;
}
);
unicode = 003B;
},
{
color = 10;
glyphname = question;
lastChange = "2020-02-10 11:43:14 +0000";
layers = (
{
layerId = "0E913661-75E6-4305-BF89-58B721FF741E";
paths = (
{
closed = 1;
nodes = (
"131 183 LINE",
"98 214 OFFCURVE",
"75 243 OFFCURVE",
"63 277 CURVE",
"91 270 OFFCURVE",
"148 243 OFFCURVE",
"214 243 CURVE",
"265 264 OFFCURVE",
"316 344 OFFCURVE",
"316 378 CURVE",
"251 459 OFFCURVE",
"143 551 OFFCURVE",
"129 576 CURVE",
"138 582 OFFCURVE",
"151 588 OFFCURVE",
"168 591 CURVE",
"154 612 LINE",
"129 602 OFFCURVE",
"106 591 OFFCURVE",
"87 575 CURVE",
"106 542 OFFCURVE",
"216 443 OFFCURVE",
"265 375 CURVE",
"257 352 OFFCURVE",
"242 331 OFFCURVE",
"216 331 CURVE SMOOTH",
"186 331 OFFCURVE",
"142 351 OFFCURVE",
"96 364 CURVE",
"77 351 OFFCURVE",
"37 303 OFFCURVE",
"17 270 CURVE",
"40 246 OFFCURVE",
"65 213 OFFCURVE",
"109 160 CURVE"
);
},
{
closed = 1;
nodes = (
"102 -19 LINE",
"111 23 OFFCURVE",
"129 42 OFFCURVE",
"171 52 CURVE",
"171 69 LINE",
"129 80 OFFCURVE",
"112 98 OFFCURVE",
"102 140 CURVE",
"85 140 LINE",
"75 98 OFFCURVE",
"57 77 OFFCURVE",
"15 67 CURVE",
"15 52 LINE",
"58 42 OFFCURVE",
"75 23 OFFCURVE",
"85 -19 CURVE"
);
}
);
width = 331;
}
);
unicode = 003F;
},
{
color = 10;
glyphname = slash;
lastChange = "2020-02-10 11:45:32 +0000";
layers = (
{
layerId = "0E913661-75E6-4305-BF89-58B721FF741E";
paths = (
{
closed = 1;
nodes = (
"88 10 LINE",
"117 167 OFFCURVE",
"158 314 OFFCURVE",
"204 471 CURVE",
"177 472 LINE",
"122 304 OFFCURVE",
"67 154 OFFCURVE",
"15 12 CURVE",
"20 0 LINE"
);
}
);
width = 214;
}
);
unicode = 002F;
},
{
color = 10;
glyphname = hyphen;
lastChange = "2020-01-30 15:42:40 +0000";
layers = (
{
layerId = "0E913661-75E6-4305-BF89-58B721FF741E";
paths = (
{
closed = 1;
nodes = (
"271 329 LINE",
"288 377 LINE",
"284 382 LINE",
"36 297 LINE",
"24 265 LINE",
"29 259 LINE"
);
},
{
closed = 1;
nodes = (
"271 170 LINE",
"290 217 LINE",
"286 222 LINE",
"36 156 LINE",
"20 125 LINE",
"25 119 LINE"
);
}
);
width = 310;
}
);
unicode = 002D;
},
{
color = 10;
export = 0;
glyphname = macr;
lastChange = "2021-02-18 14:32:04 +0000";
layers = (
{
anchors = (
{
name = _top;
position = "{147, 390}";
},
{
name = top;
position = "{148, 690}";
}
);
layerId = "0E913661-75E6-4305-BF89-58B721FF741E";
paths = (
{
closed = 1;
nodes = (
"64 508 OFFCURVE",
"194 497 OFFCURVE",
"241 497 CURVE",
"293 594 LINE",
"268 599 LINE",
"230 569 OFFCURVE",
"119 572 OFFCURVE",
"65 572 CURVE",
"20 491 LINE",
"48 485 LINE"
);
}
);
width = 313;
}
);
},
{
color = 10;
export = 0;
glyphname = ra;
lastChange = "2021-02-18 14:32:04 +0000";
layers = (
{
layerId = "0E913661-75E6-4305-BF89-58B721FF741E";
paths = (
{
closed = 1;
nodes = (
"391 528 LINE",
"374 543 LINE",
"327 522 OFFCURVE",
"289 560 OFFCURVE",
"250 583 CURVE",
"204 541 LINE",
"167 530 OFFCURVE",
"130 568 OFFCURVE",
"90 591 CURVE",
"20 517 LINE",
"39 499 LINE",
"68 533 OFFCURVE",
"114 495 OFFCURVE",
"150 460 CURVE",
"206 513 LINE",
"227 524 OFFCURVE",
"271 490 OFFCURVE",
"310 452 CURVE"
);
}
